M48
; DRILL file {KiCad (5.1.9)-1} date 10/26/21 11:54:16
; FORMAT={-:-/ absolute / inch / decimal}
; #@! TF.CreationDate,2021-10-26T11:54:16+02:00
; #@! TF.GenerationSoftware,Kicad,Pcbnew,(5.1.9)-1
; #@! TF.FileFunction,Plated,1,2,PTH
FMAT,2
INCH
T1C0.0157
T2C0.0197
T3C0.0299
T4C0.0394
T5C0.1260
%
G90
G05
T1
X1.27Y-2.1
X1.3Y-1.83
X1.55Y-2.1
X1.56Y-1.76
X1.62Y-1.61
X2.025Y-1.975
X2.22Y-1.63
T2
X1.3255Y-1.48
X1.3532Y-1.4132
X1.3532Y-1.5468
X1.42Y-1.3855
X1.42Y-1.5745
X1.4868Y-1.4132
X1.4868Y-1.5468
X1.5145Y-1.48
X2.5655Y-1.28
X2.5932Y-1.2132
X2.5932Y-1.3468
X2.66Y-1.1855
X2.66Y-1.3745
X2.7268Y-1.2132
X2.7268Y-1.3468
X2.7545Y-1.28
T3
X2.4Y-1.68
X2.45Y-1.78
X2.5Y-1.68
X2.55Y-1.78
X2.6Y-1.68
X2.65Y-1.78
T4
X1.2008Y-1.3269
X1.2008Y-1.4269
X1.2008Y-1.5269
X1.2008Y-1.6269
X1.2008Y-1.7269
X1.2008Y-1.8269
X1.2008Y-1.9269
X1.2008Y-2.0269
X2.1008Y-1.3269
X2.1008Y-1.4269
X2.1008Y-1.5269
X2.1008Y-1.6269
X2.1008Y-1.7269
X2.1008Y-1.8269
X2.1008Y-1.9269
X2.1008Y-2.0269
X2.44Y-1.38
X2.44Y-1.48
T5
X1.42Y-1.48
X2.66Y-1.28
T0
M30
