%TF.GenerationSoftware,KiCad,Pcbnew,(5.1.9)-1*%
%TF.CreationDate,2021-10-26T11:54:14+02:00*%
%TF.ProjectId,DSMR-esp,44534d52-2d65-4737-902e-6b696361645f,rev?*%
%TF.SameCoordinates,Original*%
%TF.FileFunction,Copper,L1,Top*%
%TF.FilePolarity,Positive*%
%FSLAX46Y46*%
G04 Gerber Fmt 4.6, Leading zero omitted, Abs format (unit mm)*
G04 Created by KiCad (PCBNEW (5.1.9)-1) date 2021-10-26 11:54:14*
%MOMM*%
%LPD*%
G01*
G04 APERTURE LIST*
%TA.AperFunction,EtchedComponent*%
%ADD10C,0.100000*%
%TD*%
%TA.AperFunction,ComponentPad*%
%ADD11O,1.700000X1.700000*%
%TD*%
%TA.AperFunction,ComponentPad*%
%ADD12R,1.700000X1.700000*%
%TD*%
%TA.AperFunction,ComponentPad*%
%ADD13C,0.800000*%
%TD*%
%TA.AperFunction,ComponentPad*%
%ADD14C,6.400000*%
%TD*%
%TA.AperFunction,SMDPad,CuDef*%
%ADD15R,0.800000X1.900000*%
%TD*%
%TA.AperFunction,SMDPad,CuDef*%
%ADD16R,1.800000X3.500000*%
%TD*%
%TA.AperFunction,ComponentPad*%
%ADD17O,2.000000X1.600000*%
%TD*%
%TA.AperFunction,ComponentPad*%
%ADD18R,2.000000X2.000000*%
%TD*%
%TA.AperFunction,SMDPad,CuDef*%
%ADD19C,0.100000*%
%TD*%
%TA.AperFunction,ComponentPad*%
%ADD20R,1.520000X1.520000*%
%TD*%
%TA.AperFunction,ComponentPad*%
%ADD21C,1.520000*%
%TD*%
%TA.AperFunction,ViaPad*%
%ADD22C,0.800000*%
%TD*%
%TA.AperFunction,Conductor*%
%ADD23C,0.500000*%
%TD*%
%TA.AperFunction,Conductor*%
%ADD24C,1.000000*%
%TD*%
%TA.AperFunction,Conductor*%
%ADD25C,0.254000*%
%TD*%
%TA.AperFunction,Conductor*%
%ADD26C,0.100000*%
%TD*%
G04 APERTURE END LIST*
D10*
%TO.C,JP1*%
G36*
X42287000Y-52659000D02*
G01*
X41787000Y-52659000D01*
X41787000Y-53259000D01*
X42287000Y-53259000D01*
X42287000Y-52659000D01*
G37*
%TD*%
D11*
%TO.P,JP2,2*%
%TO.N,5V_DSMR*%
X61976000Y-37592000D03*
D12*
%TO.P,JP2,1*%
%TO.N,Net-(D1-Pad2)*%
X61976000Y-35052000D03*
%TD*%
D13*
%TO.P,H2,1*%
%TO.N,N/C*%
X69261056Y-30814944D03*
X67564000Y-30112000D03*
X65866944Y-30814944D03*
X65164000Y-32512000D03*
X65866944Y-34209056D03*
X67564000Y-34912000D03*
X69261056Y-34209056D03*
X69964000Y-32512000D03*
D14*
X67564000Y-32512000D03*
%TD*%
D13*
%TO.P,H1,1*%
%TO.N,N/C*%
X37765056Y-35894944D03*
X36068000Y-35192000D03*
X34370944Y-35894944D03*
X33668000Y-37592000D03*
X34370944Y-39289056D03*
X36068000Y-39992000D03*
X37765056Y-39289056D03*
X38468000Y-37592000D03*
D14*
X36068000Y-37592000D03*
%TD*%
D15*
%TO.P,Q1,3*%
%TO.N,RX*%
X42037000Y-47728000D03*
%TO.P,Q1,2*%
%TO.N,GND*%
X41087000Y-44728000D03*
%TO.P,Q1,1*%
%TO.N,Net-(Q1-Pad1)*%
X42987000Y-44728000D03*
%TD*%
D16*
%TO.P,D1,2*%
%TO.N,Net-(D1-Pad2)*%
X57912000Y-33314000D03*
%TO.P,D1,1*%
%TO.N,+5V*%
X57912000Y-38314000D03*
%TD*%
%TO.P,R4,2*%
%TO.N,+5V*%
%TA.AperFunction,SMDPad,CuDef*%
G36*
G01*
X46857500Y-50095999D02*
X46857500Y-50996001D01*
G75*
G02*
X46607501Y-51246000I-249999J0D01*
G01*
X45957499Y-51246000D01*
G75*
G02*
X45707500Y-50996001I0J249999D01*
G01*
X45707500Y-50095999D01*
G75*
G02*
X45957499Y-49846000I249999J0D01*
G01*
X46607501Y-49846000D01*
G75*
G02*
X46857500Y-50095999I0J-249999D01*
G01*
G37*
%TD.AperFunction*%
%TO.P,R4,1*%
%TO.N,DATA_REQ*%
%TA.AperFunction,SMDPad,CuDef*%
G36*
G01*
X48907500Y-50095999D02*
X48907500Y-50996001D01*
G75*
G02*
X48657501Y-51246000I-249999J0D01*
G01*
X48007499Y-51246000D01*
G75*
G02*
X47757500Y-50996001I0J249999D01*
G01*
X47757500Y-50095999D01*
G75*
G02*
X48007499Y-49846000I249999J0D01*
G01*
X48657501Y-49846000D01*
G75*
G02*
X48907500Y-50095999I0J-249999D01*
G01*
G37*
%TD.AperFunction*%
%TD*%
%TO.P,C1,2*%
%TO.N,GND*%
%TA.AperFunction,SMDPad,CuDef*%
G36*
G01*
X47032000Y-37150000D02*
X45932000Y-37150000D01*
G75*
G02*
X45682000Y-36900000I0J250000D01*
G01*
X45682000Y-33900000D01*
G75*
G02*
X45932000Y-33650000I250000J0D01*
G01*
X47032000Y-33650000D01*
G75*
G02*
X47282000Y-33900000I0J-250000D01*
G01*
X47282000Y-36900000D01*
G75*
G02*
X47032000Y-37150000I-250000J0D01*
G01*
G37*
%TD.AperFunction*%
%TO.P,C1,1*%
%TO.N,+3V3*%
%TA.AperFunction,SMDPad,CuDef*%
G36*
G01*
X47032000Y-42550000D02*
X45932000Y-42550000D01*
G75*
G02*
X45682000Y-42300000I0J250000D01*
G01*
X45682000Y-39300000D01*
G75*
G02*
X45932000Y-39050000I250000J0D01*
G01*
X47032000Y-39050000D01*
G75*
G02*
X47282000Y-39300000I0J-250000D01*
G01*
X47282000Y-42300000D01*
G75*
G02*
X47032000Y-42550000I-250000J0D01*
G01*
G37*
%TD.AperFunction*%
%TD*%
D17*
%TO.P,U1,16*%
%TO.N,N/C*%
X53361000Y-33702000D03*
%TO.P,U1,15*%
X53361000Y-36242000D03*
%TO.P,U1,14*%
X53361000Y-38782000D03*
%TO.P,U1,13*%
X53361000Y-41322000D03*
%TO.P,U1,12*%
X53361000Y-43862000D03*
%TO.P,U1,11*%
X53361000Y-46402000D03*
%TO.P,U1,10*%
%TO.N,GND*%
X53361000Y-48942000D03*
%TO.P,U1,9*%
%TO.N,+5V*%
X53361000Y-51482000D03*
%TO.P,U1,8*%
%TO.N,+3V3*%
X30501000Y-51482000D03*
%TO.P,U1,7*%
%TO.N,N/C*%
X30501000Y-48942000D03*
%TO.P,U1,6*%
%TO.N,RX*%
X30501000Y-46402000D03*
%TO.P,U1,5*%
%TO.N,N/C*%
X30501000Y-43862000D03*
%TO.P,U1,4*%
X30501000Y-41322000D03*
%TO.P,U1,3*%
X30501000Y-38782000D03*
D18*
%TO.P,U1,1*%
X30501000Y-33702000D03*
D17*
%TO.P,U1,2*%
X30501000Y-36242000D03*
%TD*%
%TO.P,R3,2*%
%TO.N,Net-(JP1-Pad2)*%
%TA.AperFunction,SMDPad,CuDef*%
G36*
G01*
X48063999Y-47313000D02*
X48964001Y-47313000D01*
G75*
G02*
X49214000Y-47562999I0J-249999D01*
G01*
X49214000Y-48213001D01*
G75*
G02*
X48964001Y-48463000I-249999J0D01*
G01*
X48063999Y-48463000D01*
G75*
G02*
X47814000Y-48213001I0J249999D01*
G01*
X47814000Y-47562999D01*
G75*
G02*
X48063999Y-47313000I249999J0D01*
G01*
G37*
%TD.AperFunction*%
%TO.P,R3,1*%
%TO.N,DATA*%
%TA.AperFunction,SMDPad,CuDef*%
G36*
G01*
X48063999Y-45263000D02*
X48964001Y-45263000D01*
G75*
G02*
X49214000Y-45512999I0J-249999D01*
G01*
X49214000Y-46163001D01*
G75*
G02*
X48964001Y-46413000I-249999J0D01*
G01*
X48063999Y-46413000D01*
G75*
G02*
X47814000Y-46163001I0J249999D01*
G01*
X47814000Y-45512999D01*
G75*
G02*
X48063999Y-45263000I249999J0D01*
G01*
G37*
%TD.AperFunction*%
%TD*%
%TO.P,R2,2*%
%TO.N,Net-(Q1-Pad1)*%
%TA.AperFunction,SMDPad,CuDef*%
G36*
G01*
X45777999Y-47313000D02*
X46678001Y-47313000D01*
G75*
G02*
X46928000Y-47562999I0J-249999D01*
G01*
X46928000Y-48213001D01*
G75*
G02*
X46678001Y-48463000I-249999J0D01*
G01*
X45777999Y-48463000D01*
G75*
G02*
X45528000Y-48213001I0J249999D01*
G01*
X45528000Y-47562999D01*
G75*
G02*
X45777999Y-47313000I249999J0D01*
G01*
G37*
%TD.AperFunction*%
%TO.P,R2,1*%
%TO.N,DATA*%
%TA.AperFunction,SMDPad,CuDef*%
G36*
G01*
X45777999Y-45263000D02*
X46678001Y-45263000D01*
G75*
G02*
X46928000Y-45512999I0J-249999D01*
G01*
X46928000Y-46163001D01*
G75*
G02*
X46678001Y-46413000I-249999J0D01*
G01*
X45777999Y-46413000D01*
G75*
G02*
X45528000Y-46163001I0J249999D01*
G01*
X45528000Y-45512999D01*
G75*
G02*
X45777999Y-45263000I249999J0D01*
G01*
G37*
%TD.AperFunction*%
%TD*%
%TO.P,R1,2*%
%TO.N,+3V3*%
%TA.AperFunction,SMDPad,CuDef*%
G36*
G01*
X42487000Y-50488001D02*
X42487000Y-49587999D01*
G75*
G02*
X42736999Y-49338000I249999J0D01*
G01*
X43387001Y-49338000D01*
G75*
G02*
X43637000Y-49587999I0J-249999D01*
G01*
X43637000Y-50488001D01*
G75*
G02*
X43387001Y-50738000I-249999J0D01*
G01*
X42736999Y-50738000D01*
G75*
G02*
X42487000Y-50488001I0J249999D01*
G01*
G37*
%TD.AperFunction*%
%TO.P,R1,1*%
%TO.N,RX*%
%TA.AperFunction,SMDPad,CuDef*%
G36*
G01*
X40437000Y-50488001D02*
X40437000Y-49587999D01*
G75*
G02*
X40686999Y-49338000I249999J0D01*
G01*
X41337001Y-49338000D01*
G75*
G02*
X41587000Y-49587999I0J-249999D01*
G01*
X41587000Y-50488001D01*
G75*
G02*
X41337001Y-50738000I-249999J0D01*
G01*
X40686999Y-50738000D01*
G75*
G02*
X40437000Y-50488001I0J249999D01*
G01*
G37*
%TD.AperFunction*%
%TD*%
%TA.AperFunction,SMDPad,CuDef*%
D19*
%TO.P,JP1,1*%
%TO.N,+3V3*%
G36*
X41887000Y-53709000D02*
G01*
X41387000Y-53709000D01*
X41387000Y-53708398D01*
X41362466Y-53708398D01*
X41313635Y-53703588D01*
X41265510Y-53694016D01*
X41218555Y-53679772D01*
X41173222Y-53660995D01*
X41129949Y-53637864D01*
X41089150Y-53610604D01*
X41051221Y-53579476D01*
X41016524Y-53544779D01*
X40985396Y-53506850D01*
X40958136Y-53466051D01*
X40935005Y-53422778D01*
X40916228Y-53377445D01*
X40901984Y-53330490D01*
X40892412Y-53282365D01*
X40887602Y-53233534D01*
X40887602Y-53209000D01*
X40887000Y-53209000D01*
X40887000Y-52709000D01*
X40887602Y-52709000D01*
X40887602Y-52684466D01*
X40892412Y-52635635D01*
X40901984Y-52587510D01*
X40916228Y-52540555D01*
X40935005Y-52495222D01*
X40958136Y-52451949D01*
X40985396Y-52411150D01*
X41016524Y-52373221D01*
X41051221Y-52338524D01*
X41089150Y-52307396D01*
X41129949Y-52280136D01*
X41173222Y-52257005D01*
X41218555Y-52238228D01*
X41265510Y-52223984D01*
X41313635Y-52214412D01*
X41362466Y-52209602D01*
X41387000Y-52209602D01*
X41387000Y-52209000D01*
X41887000Y-52209000D01*
X41887000Y-53709000D01*
G37*
%TD.AperFunction*%
%TA.AperFunction,SMDPad,CuDef*%
%TO.P,JP1,2*%
%TO.N,Net-(JP1-Pad2)*%
G36*
X42687000Y-52209602D02*
G01*
X42711534Y-52209602D01*
X42760365Y-52214412D01*
X42808490Y-52223984D01*
X42855445Y-52238228D01*
X42900778Y-52257005D01*
X42944051Y-52280136D01*
X42984850Y-52307396D01*
X43022779Y-52338524D01*
X43057476Y-52373221D01*
X43088604Y-52411150D01*
X43115864Y-52451949D01*
X43138995Y-52495222D01*
X43157772Y-52540555D01*
X43172016Y-52587510D01*
X43181588Y-52635635D01*
X43186398Y-52684466D01*
X43186398Y-52709000D01*
X43187000Y-52709000D01*
X43187000Y-53209000D01*
X43186398Y-53209000D01*
X43186398Y-53233534D01*
X43181588Y-53282365D01*
X43172016Y-53330490D01*
X43157772Y-53377445D01*
X43138995Y-53422778D01*
X43115864Y-53466051D01*
X43088604Y-53506850D01*
X43057476Y-53544779D01*
X43022779Y-53579476D01*
X42984850Y-53610604D01*
X42944051Y-53637864D01*
X42900778Y-53660995D01*
X42855445Y-53679772D01*
X42808490Y-53694016D01*
X42760365Y-53703588D01*
X42711534Y-53708398D01*
X42687000Y-53708398D01*
X42687000Y-53709000D01*
X42187000Y-53709000D01*
X42187000Y-52209000D01*
X42687000Y-52209000D01*
X42687000Y-52209602D01*
G37*
%TD.AperFunction*%
%TD*%
D20*
%TO.P,J1,1*%
%TO.N,5V_DSMR*%
X60960000Y-42672000D03*
D21*
%TO.P,J1,2*%
%TO.N,DATA_REQ*%
X62230000Y-45212000D03*
%TO.P,J1,3*%
%TO.N,GND*%
X63500000Y-42672000D03*
%TO.P,J1,4*%
%TO.N,N/C*%
X64770000Y-45212000D03*
%TO.P,J1,5*%
%TO.N,DATA*%
X66040000Y-42672000D03*
%TO.P,J1,6*%
%TO.N,GND*%
X67310000Y-45212000D03*
%TD*%
D22*
%TO.N,GND*%
X39624000Y-44704000D03*
X33020000Y-46482000D03*
X39370000Y-53340000D03*
X32258000Y-53340000D03*
X51435000Y-50165000D03*
%TO.N,+3V3*%
X41148000Y-40894000D03*
%TO.N,+5V*%
X56387998Y-41402000D03*
%TD*%
D23*
%TO.N,DATA_REQ*%
X51384200Y-47675800D02*
X48514000Y-50546000D01*
X48514000Y-50546000D02*
X48332500Y-50546000D01*
X59766200Y-47675800D02*
X51384200Y-47675800D01*
X62230000Y-45212000D02*
X59766200Y-47675800D01*
%TO.N,DATA*%
X49366990Y-45112010D02*
X48514000Y-45965000D01*
X60297990Y-45112010D02*
X49366990Y-45112010D01*
X48514000Y-45965000D02*
X46228000Y-45965000D01*
X61527999Y-43882001D02*
X60297990Y-45112010D01*
X64829999Y-43882001D02*
X61527999Y-43882001D01*
X66040000Y-42672000D02*
X64829999Y-43882001D01*
%TO.N,Net-(JP1-Pad2)*%
X47380000Y-49149000D02*
X48514000Y-48015000D01*
X45768117Y-49149000D02*
X47380000Y-49149000D01*
X42687000Y-52230117D02*
X45768117Y-49149000D01*
X42687000Y-52959000D02*
X42687000Y-52230117D01*
%TO.N,RX*%
X41003000Y-50038000D02*
X34137000Y-50038000D01*
X41012000Y-50029000D02*
X41003000Y-50038000D01*
X34137000Y-50038000D02*
X30501000Y-46402000D01*
X41012000Y-50038000D02*
X41012000Y-50029000D01*
X42037000Y-49013000D02*
X41012000Y-50038000D01*
X42037000Y-47990000D02*
X42037000Y-49013000D01*
%TO.N,Net-(Q1-Pad1)*%
X45602000Y-48015000D02*
X46228000Y-48015000D01*
X42987000Y-45400000D02*
X45602000Y-48015000D01*
X42987000Y-44728000D02*
X42987000Y-45400000D01*
D24*
%TO.N,+3V3*%
X41387000Y-52959000D02*
X41387000Y-51713000D01*
X30530200Y-51511200D02*
X41588800Y-51511200D01*
X30501000Y-51482000D02*
X30530200Y-51511200D01*
X46482000Y-40800000D02*
X41242000Y-40800000D01*
X41242000Y-40800000D02*
X41148000Y-40894000D01*
X43062000Y-50106520D02*
X43062000Y-50038000D01*
X41659530Y-51508990D02*
X43062000Y-50106520D01*
X41591010Y-51508990D02*
X41659530Y-51508990D01*
X41387000Y-51713000D02*
X41591010Y-51508990D01*
%TO.N,5V_DSMR*%
X60960000Y-38608000D02*
X61976000Y-37592000D01*
X60960000Y-42672000D02*
X60960000Y-38608000D01*
%TO.N,+5V*%
X57952000Y-39837998D02*
X56387998Y-41402000D01*
X57952000Y-37846000D02*
X57952000Y-39837998D01*
D23*
X53146990Y-51696010D02*
X53361000Y-51482000D01*
X47124010Y-51696010D02*
X53146990Y-51696010D01*
X46282500Y-50854500D02*
X47124010Y-51696010D01*
X46282500Y-50546000D02*
X46282500Y-50854500D01*
D24*
%TO.N,Net-(D1-Pad2)*%
X59650000Y-35052000D02*
X57912000Y-33314000D01*
X61976000Y-35052000D02*
X59650000Y-35052000D01*
%TD*%
D25*
%TO.N,GND*%
X71476000Y-59284000D02*
X29616000Y-59284000D01*
X29616000Y-52742989D01*
X29749192Y-52814182D01*
X30019691Y-52896236D01*
X30230508Y-52917000D01*
X30771492Y-52917000D01*
X30982309Y-52896236D01*
X31252808Y-52814182D01*
X31502101Y-52680932D01*
X31544422Y-52646200D01*
X40252000Y-52646200D01*
X40252000Y-52653249D01*
X40251336Y-52659991D01*
X40251336Y-52684550D01*
X40248928Y-52709000D01*
X40248928Y-53209000D01*
X40251336Y-53233450D01*
X40251336Y-53258009D01*
X40263596Y-53382490D01*
X40282718Y-53478623D01*
X40319027Y-53598319D01*
X40356536Y-53688875D01*
X40415502Y-53799192D01*
X40469958Y-53880691D01*
X40549310Y-53977382D01*
X40618618Y-54046690D01*
X40715309Y-54126042D01*
X40796808Y-54180498D01*
X40907125Y-54239464D01*
X40997681Y-54276973D01*
X41117377Y-54313282D01*
X41213510Y-54332404D01*
X41337991Y-54344664D01*
X41362550Y-54344664D01*
X41387000Y-54347072D01*
X41887000Y-54347072D01*
X42011482Y-54334812D01*
X42037000Y-54327071D01*
X42062518Y-54334812D01*
X42187000Y-54347072D01*
X42687000Y-54347072D01*
X42711450Y-54344664D01*
X42736009Y-54344664D01*
X42860490Y-54332404D01*
X42956623Y-54313282D01*
X43076319Y-54276973D01*
X43166875Y-54239464D01*
X43277192Y-54180498D01*
X43358691Y-54126042D01*
X43455382Y-54046690D01*
X43524690Y-53977382D01*
X43604042Y-53880691D01*
X43658498Y-53799192D01*
X43717464Y-53688875D01*
X43754973Y-53598319D01*
X43791282Y-53478623D01*
X43810404Y-53382490D01*
X43822664Y-53258009D01*
X43822664Y-53233450D01*
X43825072Y-53209000D01*
X43825072Y-52709000D01*
X43822664Y-52684550D01*
X43822664Y-52659991D01*
X43810404Y-52535510D01*
X43791282Y-52439377D01*
X43776860Y-52391835D01*
X45078687Y-51090009D01*
X45086492Y-51169255D01*
X45137028Y-51335851D01*
X45219095Y-51489387D01*
X45329538Y-51623962D01*
X45464113Y-51734405D01*
X45617649Y-51816472D01*
X45784245Y-51867008D01*
X45957499Y-51884072D01*
X46060494Y-51884072D01*
X46467480Y-52291059D01*
X46495193Y-52324827D01*
X46528961Y-52352540D01*
X46528963Y-52352542D01*
X46612531Y-52421125D01*
X46629951Y-52435421D01*
X46783697Y-52517599D01*
X46950520Y-52568205D01*
X47080533Y-52581010D01*
X47080541Y-52581010D01*
X47124010Y-52585291D01*
X47167479Y-52581010D01*
X52238144Y-52581010D01*
X52359899Y-52680932D01*
X52609192Y-52814182D01*
X52879691Y-52896236D01*
X53090508Y-52917000D01*
X53631492Y-52917000D01*
X53842309Y-52896236D01*
X54112808Y-52814182D01*
X54362101Y-52680932D01*
X54580608Y-52501608D01*
X54759932Y-52283101D01*
X54893182Y-52033808D01*
X54975236Y-51763309D01*
X55002943Y-51482000D01*
X54988899Y-51339409D01*
X56790000Y-51339409D01*
X56790000Y-51784591D01*
X56876851Y-52221218D01*
X57047214Y-52632511D01*
X57294544Y-53002666D01*
X57609334Y-53317456D01*
X57979489Y-53564786D01*
X58390782Y-53735149D01*
X58827409Y-53822000D01*
X59272591Y-53822000D01*
X59709218Y-53735149D01*
X60120511Y-53564786D01*
X60490666Y-53317456D01*
X60805456Y-53002666D01*
X61052786Y-52632511D01*
X61223149Y-52221218D01*
X61310000Y-51784591D01*
X61310000Y-51339409D01*
X66950000Y-51339409D01*
X66950000Y-51784591D01*
X67036851Y-52221218D01*
X67207214Y-52632511D01*
X67454544Y-53002666D01*
X67769334Y-53317456D01*
X68139489Y-53564786D01*
X68550782Y-53735149D01*
X68987409Y-53822000D01*
X69432591Y-53822000D01*
X69869218Y-53735149D01*
X70280511Y-53564786D01*
X70650666Y-53317456D01*
X70965456Y-53002666D01*
X71212786Y-52632511D01*
X71383149Y-52221218D01*
X71470000Y-51784591D01*
X71470000Y-51339409D01*
X71383149Y-50902782D01*
X71212786Y-50491489D01*
X70965456Y-50121334D01*
X70650666Y-49806544D01*
X70280511Y-49559214D01*
X69869218Y-49388851D01*
X69432591Y-49302000D01*
X68987409Y-49302000D01*
X68550782Y-49388851D01*
X68139489Y-49559214D01*
X67769334Y-49806544D01*
X67454544Y-50121334D01*
X67207214Y-50491489D01*
X67036851Y-50902782D01*
X66950000Y-51339409D01*
X61310000Y-51339409D01*
X61223149Y-50902782D01*
X61052786Y-50491489D01*
X60805456Y-50121334D01*
X60490666Y-49806544D01*
X60120511Y-49559214D01*
X59709218Y-49388851D01*
X59272591Y-49302000D01*
X58827409Y-49302000D01*
X58390782Y-49388851D01*
X57979489Y-49559214D01*
X57609334Y-49806544D01*
X57294544Y-50121334D01*
X57047214Y-50491489D01*
X56876851Y-50902782D01*
X56790000Y-51339409D01*
X54988899Y-51339409D01*
X54975236Y-51200691D01*
X54893182Y-50930192D01*
X54759932Y-50680899D01*
X54580608Y-50462392D01*
X54362101Y-50283068D01*
X54232655Y-50213878D01*
X54250227Y-50206430D01*
X54483662Y-50047673D01*
X54681639Y-49846425D01*
X54836551Y-49610421D01*
X54942444Y-49348730D01*
X54952904Y-49291039D01*
X54830915Y-49069000D01*
X53488000Y-49069000D01*
X53488000Y-49089000D01*
X53234000Y-49089000D01*
X53234000Y-49069000D01*
X51891085Y-49069000D01*
X51769096Y-49291039D01*
X51779556Y-49348730D01*
X51885449Y-49610421D01*
X52040361Y-49846425D01*
X52238338Y-50047673D01*
X52471773Y-50206430D01*
X52489345Y-50213878D01*
X52359899Y-50283068D01*
X52141392Y-50462392D01*
X51962068Y-50680899D01*
X51892522Y-50811010D01*
X49545572Y-50811010D01*
X49545572Y-50766006D01*
X51750779Y-48560800D01*
X51774927Y-48560800D01*
X51769096Y-48592961D01*
X51891085Y-48815000D01*
X53234000Y-48815000D01*
X53234000Y-48795000D01*
X53488000Y-48795000D01*
X53488000Y-48815000D01*
X54830915Y-48815000D01*
X54952904Y-48592961D01*
X54947073Y-48560800D01*
X59722731Y-48560800D01*
X59766200Y-48565081D01*
X59809669Y-48560800D01*
X59809677Y-48560800D01*
X59939690Y-48547995D01*
X60106513Y-48497389D01*
X60260259Y-48415211D01*
X60395017Y-48304617D01*
X60422734Y-48270844D01*
X62087578Y-46606000D01*
X62092604Y-46607000D01*
X62367396Y-46607000D01*
X62636907Y-46553391D01*
X62890780Y-46448233D01*
X63119261Y-46295567D01*
X63313567Y-46101261D01*
X63466233Y-45872780D01*
X63500000Y-45791260D01*
X63533767Y-45872780D01*
X63686433Y-46101261D01*
X63880739Y-46295567D01*
X64109220Y-46448233D01*
X64363093Y-46553391D01*
X64632604Y-46607000D01*
X64907396Y-46607000D01*
X65176907Y-46553391D01*
X65430780Y-46448233D01*
X65659261Y-46295567D01*
X65778691Y-46176137D01*
X66525469Y-46176137D01*
X66592206Y-46416025D01*
X66840892Y-46532924D01*
X67107606Y-46599061D01*
X67382097Y-46611895D01*
X67653817Y-46570931D01*
X67912326Y-46477744D01*
X68027794Y-46416025D01*
X68094531Y-46176137D01*
X67310000Y-45391605D01*
X66525469Y-46176137D01*
X65778691Y-46176137D01*
X65853567Y-46101261D01*
X66006233Y-45872780D01*
X66037830Y-45796499D01*
X66044256Y-45814326D01*
X66105975Y-45929794D01*
X66345863Y-45996531D01*
X67130395Y-45212000D01*
X67489605Y-45212000D01*
X68274137Y-45996531D01*
X68514025Y-45929794D01*
X68630924Y-45681108D01*
X68697061Y-45414394D01*
X68709895Y-45139903D01*
X68668931Y-44868183D01*
X68575744Y-44609674D01*
X68514025Y-44494206D01*
X68274137Y-44427469D01*
X67489605Y-45212000D01*
X67130395Y-45212000D01*
X66345863Y-44427469D01*
X66105975Y-44494206D01*
X66040400Y-44633707D01*
X66006233Y-44551220D01*
X65853567Y-44322739D01*
X65778691Y-44247863D01*
X66525469Y-44247863D01*
X67310000Y-45032395D01*
X68094531Y-44247863D01*
X68027794Y-44007975D01*
X67779108Y-43891076D01*
X67512394Y-43824939D01*
X67237903Y-43812105D01*
X66966183Y-43853069D01*
X66707674Y-43946256D01*
X66592206Y-44007975D01*
X66525469Y-44247863D01*
X65778691Y-44247863D01*
X65747203Y-44216375D01*
X65897578Y-44066000D01*
X65902604Y-44067000D01*
X66177396Y-44067000D01*
X66446907Y-44013391D01*
X66700780Y-43908233D01*
X66929261Y-43755567D01*
X67123567Y-43561261D01*
X67276233Y-43332780D01*
X67381391Y-43078907D01*
X67435000Y-42809396D01*
X67435000Y-42534604D01*
X67381391Y-42265093D01*
X67276233Y-42011220D01*
X67123567Y-41782739D01*
X66929261Y-41588433D01*
X66700780Y-41435767D01*
X66446907Y-41330609D01*
X66177396Y-41277000D01*
X65902604Y-41277000D01*
X65633093Y-41330609D01*
X65379220Y-41435767D01*
X65150739Y-41588433D01*
X64956433Y-41782739D01*
X64803767Y-42011220D01*
X64772170Y-42087501D01*
X64765744Y-42069674D01*
X64704025Y-41954206D01*
X64464137Y-41887469D01*
X63679605Y-42672000D01*
X63693748Y-42686143D01*
X63514143Y-42865748D01*
X63500000Y-42851605D01*
X63485858Y-42865748D01*
X63306253Y-42686143D01*
X63320395Y-42672000D01*
X62535863Y-41887469D01*
X62358072Y-41936931D01*
X62358072Y-41912000D01*
X62345812Y-41787518D01*
X62321649Y-41707863D01*
X62715469Y-41707863D01*
X63500000Y-42492395D01*
X64284531Y-41707863D01*
X64217794Y-41467975D01*
X63969108Y-41351076D01*
X63702394Y-41284939D01*
X63427903Y-41272105D01*
X63156183Y-41313069D01*
X62897674Y-41406256D01*
X62782206Y-41467975D01*
X62715469Y-41707863D01*
X62321649Y-41707863D01*
X62309502Y-41667820D01*
X62250537Y-41557506D01*
X62171185Y-41460815D01*
X62095000Y-41398292D01*
X62095000Y-39078131D01*
X62096131Y-39077000D01*
X62122260Y-39077000D01*
X62409158Y-39019932D01*
X62679411Y-38907990D01*
X62922632Y-38745475D01*
X63129475Y-38538632D01*
X63291990Y-38295411D01*
X63403932Y-38025158D01*
X63461000Y-37738260D01*
X63461000Y-37445740D01*
X63403932Y-37158842D01*
X63291990Y-36888589D01*
X63129475Y-36645368D01*
X62997620Y-36513513D01*
X63070180Y-36491502D01*
X63180494Y-36432537D01*
X63277185Y-36353185D01*
X63356537Y-36256494D01*
X63415502Y-36146180D01*
X63451812Y-36026482D01*
X63464072Y-35902000D01*
X63464072Y-34202000D01*
X63451812Y-34077518D01*
X63415502Y-33957820D01*
X63356537Y-33847506D01*
X63277185Y-33750815D01*
X63180494Y-33671463D01*
X63070180Y-33612498D01*
X62950482Y-33576188D01*
X62826000Y-33563928D01*
X61126000Y-33563928D01*
X61001518Y-33576188D01*
X60881820Y-33612498D01*
X60771506Y-33671463D01*
X60674815Y-33750815D01*
X60595463Y-33847506D01*
X60558317Y-33917000D01*
X60120132Y-33917000D01*
X59450072Y-33246941D01*
X59450072Y-32134285D01*
X63729000Y-32134285D01*
X63729000Y-32889715D01*
X63876377Y-33630628D01*
X64165467Y-34328554D01*
X64585161Y-34956670D01*
X65119330Y-35490839D01*
X65747446Y-35910533D01*
X66445372Y-36199623D01*
X67186285Y-36347000D01*
X67941715Y-36347000D01*
X68682628Y-36199623D01*
X69380554Y-35910533D01*
X70008670Y-35490839D01*
X70542839Y-34956670D01*
X70962533Y-34328554D01*
X71251623Y-33630628D01*
X71399000Y-32889715D01*
X71399000Y-32134285D01*
X71251623Y-31393372D01*
X70962533Y-30695446D01*
X70542839Y-30067330D01*
X70008670Y-29533161D01*
X69380554Y-29113467D01*
X68682628Y-28824377D01*
X67941715Y-28677000D01*
X67186285Y-28677000D01*
X66445372Y-28824377D01*
X65747446Y-29113467D01*
X65119330Y-29533161D01*
X64585161Y-30067330D01*
X64165467Y-30695446D01*
X63876377Y-31393372D01*
X63729000Y-32134285D01*
X59450072Y-32134285D01*
X59450072Y-31564000D01*
X59437812Y-31439518D01*
X59401502Y-31319820D01*
X59342537Y-31209506D01*
X59263185Y-31112815D01*
X59166494Y-31033463D01*
X59056180Y-30974498D01*
X58936482Y-30938188D01*
X58812000Y-30925928D01*
X57012000Y-30925928D01*
X56887518Y-30938188D01*
X56767820Y-30974498D01*
X56657506Y-31033463D01*
X56560815Y-31112815D01*
X56481463Y-31209506D01*
X56422498Y-31319820D01*
X56386188Y-31439518D01*
X56373928Y-31564000D01*
X56373928Y-35064000D01*
X56386188Y-35188482D01*
X56422498Y-35308180D01*
X56481463Y-35418494D01*
X56560815Y-35515185D01*
X56657506Y-35594537D01*
X56767820Y-35653502D01*
X56887518Y-35689812D01*
X57012000Y-35702072D01*
X58694940Y-35702072D01*
X58808009Y-35815140D01*
X58843551Y-35858449D01*
X58943194Y-35940224D01*
X58936482Y-35938188D01*
X58812000Y-35925928D01*
X57012000Y-35925928D01*
X56887518Y-35938188D01*
X56767820Y-35974498D01*
X56657506Y-36033463D01*
X56560815Y-36112815D01*
X56481463Y-36209506D01*
X56422498Y-36319820D01*
X56386188Y-36439518D01*
X56373928Y-36564000D01*
X56373928Y-39810938D01*
X55546010Y-40638857D01*
X55439715Y-40768378D01*
X55334322Y-40965554D01*
X55269421Y-41179502D01*
X55247507Y-41402000D01*
X55269421Y-41624498D01*
X55334322Y-41838446D01*
X55439715Y-42035622D01*
X55581550Y-42208448D01*
X55754376Y-42350283D01*
X55951552Y-42455676D01*
X56165500Y-42520577D01*
X56387998Y-42542491D01*
X56610496Y-42520577D01*
X56824444Y-42455676D01*
X57021620Y-42350283D01*
X57151141Y-42243988D01*
X58693058Y-40702072D01*
X58812000Y-40702072D01*
X58936482Y-40689812D01*
X59056180Y-40653502D01*
X59166494Y-40594537D01*
X59263185Y-40515185D01*
X59342537Y-40418494D01*
X59401502Y-40308180D01*
X59437812Y-40188482D01*
X59450072Y-40064000D01*
X59450072Y-36564000D01*
X59437812Y-36439518D01*
X59401502Y-36319820D01*
X59342537Y-36209506D01*
X59271836Y-36123356D01*
X59347076Y-36146180D01*
X59427500Y-36170577D01*
X59448493Y-36172644D01*
X59594248Y-36187000D01*
X59594255Y-36187000D01*
X59649999Y-36192490D01*
X59705743Y-36187000D01*
X60558317Y-36187000D01*
X60595463Y-36256494D01*
X60674815Y-36353185D01*
X60771506Y-36432537D01*
X60881820Y-36491502D01*
X60954380Y-36513513D01*
X60822525Y-36645368D01*
X60660010Y-36888589D01*
X60548068Y-37158842D01*
X60491000Y-37445740D01*
X60491000Y-37471869D01*
X60196860Y-37766009D01*
X60153552Y-37801551D01*
X60011717Y-37974377D01*
X60008231Y-37980899D01*
X59906324Y-38171554D01*
X59841423Y-38385502D01*
X59819509Y-38608000D01*
X59825001Y-38663761D01*
X59825000Y-41398292D01*
X59748815Y-41460815D01*
X59669463Y-41557506D01*
X59610498Y-41667820D01*
X59574188Y-41787518D01*
X59561928Y-41912000D01*
X59561928Y-43432000D01*
X59574188Y-43556482D01*
X59610498Y-43676180D01*
X59669463Y-43786494D01*
X59748815Y-43883185D01*
X59845506Y-43962537D01*
X59955820Y-44021502D01*
X60075518Y-44057812D01*
X60098360Y-44060062D01*
X59931412Y-44227010D01*
X54949846Y-44227010D01*
X54975236Y-44143309D01*
X55002943Y-43862000D01*
X54975236Y-43580691D01*
X54893182Y-43310192D01*
X54759932Y-43060899D01*
X54580608Y-42842392D01*
X54362101Y-42663068D01*
X54229142Y-42592000D01*
X54362101Y-42520932D01*
X54580608Y-42341608D01*
X54759932Y-42123101D01*
X54893182Y-41873808D01*
X54975236Y-41603309D01*
X55002943Y-41322000D01*
X54975236Y-41040691D01*
X54893182Y-40770192D01*
X54759932Y-40520899D01*
X54580608Y-40302392D01*
X54362101Y-40123068D01*
X54229142Y-40052000D01*
X54362101Y-39980932D01*
X54580608Y-39801608D01*
X54759932Y-39583101D01*
X54893182Y-39333808D01*
X54975236Y-39063309D01*
X55002943Y-38782000D01*
X54975236Y-38500691D01*
X54893182Y-38230192D01*
X54759932Y-37980899D01*
X54580608Y-37762392D01*
X54362101Y-37583068D01*
X54229142Y-37512000D01*
X54362101Y-37440932D01*
X54580608Y-37261608D01*
X54759932Y-37043101D01*
X54893182Y-36793808D01*
X54975236Y-36523309D01*
X55002943Y-36242000D01*
X54975236Y-35960691D01*
X54893182Y-35690192D01*
X54759932Y-35440899D01*
X54580608Y-35222392D01*
X54362101Y-35043068D01*
X54229142Y-34972000D01*
X54362101Y-34900932D01*
X54580608Y-34721608D01*
X54759932Y-34503101D01*
X54893182Y-34253808D01*
X54975236Y-33983309D01*
X55002943Y-33702000D01*
X54975236Y-33420691D01*
X54893182Y-33150192D01*
X54759932Y-32900899D01*
X54580608Y-32682392D01*
X54527735Y-32639000D01*
X55118000Y-32639000D01*
X55142776Y-32636560D01*
X55166601Y-32629333D01*
X55188557Y-32617597D01*
X55207803Y-32601803D01*
X55223597Y-32582557D01*
X55235333Y-32560601D01*
X55242560Y-32536776D01*
X55245000Y-32512000D01*
X55245000Y-28600000D01*
X71476001Y-28600000D01*
X71476000Y-59284000D01*
%TA.AperFunction,Conductor*%
D26*
G36*
X71476000Y-59284000D02*
G01*
X29616000Y-59284000D01*
X29616000Y-52742989D01*
X29749192Y-52814182D01*
X30019691Y-52896236D01*
X30230508Y-52917000D01*
X30771492Y-52917000D01*
X30982309Y-52896236D01*
X31252808Y-52814182D01*
X31502101Y-52680932D01*
X31544422Y-52646200D01*
X40252000Y-52646200D01*
X40252000Y-52653249D01*
X40251336Y-52659991D01*
X40251336Y-52684550D01*
X40248928Y-52709000D01*
X40248928Y-53209000D01*
X40251336Y-53233450D01*
X40251336Y-53258009D01*
X40263596Y-53382490D01*
X40282718Y-53478623D01*
X40319027Y-53598319D01*
X40356536Y-53688875D01*
X40415502Y-53799192D01*
X40469958Y-53880691D01*
X40549310Y-53977382D01*
X40618618Y-54046690D01*
X40715309Y-54126042D01*
X40796808Y-54180498D01*
X40907125Y-54239464D01*
X40997681Y-54276973D01*
X41117377Y-54313282D01*
X41213510Y-54332404D01*
X41337991Y-54344664D01*
X41362550Y-54344664D01*
X41387000Y-54347072D01*
X41887000Y-54347072D01*
X42011482Y-54334812D01*
X42037000Y-54327071D01*
X42062518Y-54334812D01*
X42187000Y-54347072D01*
X42687000Y-54347072D01*
X42711450Y-54344664D01*
X42736009Y-54344664D01*
X42860490Y-54332404D01*
X42956623Y-54313282D01*
X43076319Y-54276973D01*
X43166875Y-54239464D01*
X43277192Y-54180498D01*
X43358691Y-54126042D01*
X43455382Y-54046690D01*
X43524690Y-53977382D01*
X43604042Y-53880691D01*
X43658498Y-53799192D01*
X43717464Y-53688875D01*
X43754973Y-53598319D01*
X43791282Y-53478623D01*
X43810404Y-53382490D01*
X43822664Y-53258009D01*
X43822664Y-53233450D01*
X43825072Y-53209000D01*
X43825072Y-52709000D01*
X43822664Y-52684550D01*
X43822664Y-52659991D01*
X43810404Y-52535510D01*
X43791282Y-52439377D01*
X43776860Y-52391835D01*
X45078687Y-51090009D01*
X45086492Y-51169255D01*
X45137028Y-51335851D01*
X45219095Y-51489387D01*
X45329538Y-51623962D01*
X45464113Y-51734405D01*
X45617649Y-51816472D01*
X45784245Y-51867008D01*
X45957499Y-51884072D01*
X46060494Y-51884072D01*
X46467480Y-52291059D01*
X46495193Y-52324827D01*
X46528961Y-52352540D01*
X46528963Y-52352542D01*
X46612531Y-52421125D01*
X46629951Y-52435421D01*
X46783697Y-52517599D01*
X46950520Y-52568205D01*
X47080533Y-52581010D01*
X47080541Y-52581010D01*
X47124010Y-52585291D01*
X47167479Y-52581010D01*
X52238144Y-52581010D01*
X52359899Y-52680932D01*
X52609192Y-52814182D01*
X52879691Y-52896236D01*
X53090508Y-52917000D01*
X53631492Y-52917000D01*
X53842309Y-52896236D01*
X54112808Y-52814182D01*
X54362101Y-52680932D01*
X54580608Y-52501608D01*
X54759932Y-52283101D01*
X54893182Y-52033808D01*
X54975236Y-51763309D01*
X55002943Y-51482000D01*
X54988899Y-51339409D01*
X56790000Y-51339409D01*
X56790000Y-51784591D01*
X56876851Y-52221218D01*
X57047214Y-52632511D01*
X57294544Y-53002666D01*
X57609334Y-53317456D01*
X57979489Y-53564786D01*
X58390782Y-53735149D01*
X58827409Y-53822000D01*
X59272591Y-53822000D01*
X59709218Y-53735149D01*
X60120511Y-53564786D01*
X60490666Y-53317456D01*
X60805456Y-53002666D01*
X61052786Y-52632511D01*
X61223149Y-52221218D01*
X61310000Y-51784591D01*
X61310000Y-51339409D01*
X66950000Y-51339409D01*
X66950000Y-51784591D01*
X67036851Y-52221218D01*
X67207214Y-52632511D01*
X67454544Y-53002666D01*
X67769334Y-53317456D01*
X68139489Y-53564786D01*
X68550782Y-53735149D01*
X68987409Y-53822000D01*
X69432591Y-53822000D01*
X69869218Y-53735149D01*
X70280511Y-53564786D01*
X70650666Y-53317456D01*
X70965456Y-53002666D01*
X71212786Y-52632511D01*
X71383149Y-52221218D01*
X71470000Y-51784591D01*
X71470000Y-51339409D01*
X71383149Y-50902782D01*
X71212786Y-50491489D01*
X70965456Y-50121334D01*
X70650666Y-49806544D01*
X70280511Y-49559214D01*
X69869218Y-49388851D01*
X69432591Y-49302000D01*
X68987409Y-49302000D01*
X68550782Y-49388851D01*
X68139489Y-49559214D01*
X67769334Y-49806544D01*
X67454544Y-50121334D01*
X67207214Y-50491489D01*
X67036851Y-50902782D01*
X66950000Y-51339409D01*
X61310000Y-51339409D01*
X61223149Y-50902782D01*
X61052786Y-50491489D01*
X60805456Y-50121334D01*
X60490666Y-49806544D01*
X60120511Y-49559214D01*
X59709218Y-49388851D01*
X59272591Y-49302000D01*
X58827409Y-49302000D01*
X58390782Y-49388851D01*
X57979489Y-49559214D01*
X57609334Y-49806544D01*
X57294544Y-50121334D01*
X57047214Y-50491489D01*
X56876851Y-50902782D01*
X56790000Y-51339409D01*
X54988899Y-51339409D01*
X54975236Y-51200691D01*
X54893182Y-50930192D01*
X54759932Y-50680899D01*
X54580608Y-50462392D01*
X54362101Y-50283068D01*
X54232655Y-50213878D01*
X54250227Y-50206430D01*
X54483662Y-50047673D01*
X54681639Y-49846425D01*
X54836551Y-49610421D01*
X54942444Y-49348730D01*
X54952904Y-49291039D01*
X54830915Y-49069000D01*
X53488000Y-49069000D01*
X53488000Y-49089000D01*
X53234000Y-49089000D01*
X53234000Y-49069000D01*
X51891085Y-49069000D01*
X51769096Y-49291039D01*
X51779556Y-49348730D01*
X51885449Y-49610421D01*
X52040361Y-49846425D01*
X52238338Y-50047673D01*
X52471773Y-50206430D01*
X52489345Y-50213878D01*
X52359899Y-50283068D01*
X52141392Y-50462392D01*
X51962068Y-50680899D01*
X51892522Y-50811010D01*
X49545572Y-50811010D01*
X49545572Y-50766006D01*
X51750779Y-48560800D01*
X51774927Y-48560800D01*
X51769096Y-48592961D01*
X51891085Y-48815000D01*
X53234000Y-48815000D01*
X53234000Y-48795000D01*
X53488000Y-48795000D01*
X53488000Y-48815000D01*
X54830915Y-48815000D01*
X54952904Y-48592961D01*
X54947073Y-48560800D01*
X59722731Y-48560800D01*
X59766200Y-48565081D01*
X59809669Y-48560800D01*
X59809677Y-48560800D01*
X59939690Y-48547995D01*
X60106513Y-48497389D01*
X60260259Y-48415211D01*
X60395017Y-48304617D01*
X60422734Y-48270844D01*
X62087578Y-46606000D01*
X62092604Y-46607000D01*
X62367396Y-46607000D01*
X62636907Y-46553391D01*
X62890780Y-46448233D01*
X63119261Y-46295567D01*
X63313567Y-46101261D01*
X63466233Y-45872780D01*
X63500000Y-45791260D01*
X63533767Y-45872780D01*
X63686433Y-46101261D01*
X63880739Y-46295567D01*
X64109220Y-46448233D01*
X64363093Y-46553391D01*
X64632604Y-46607000D01*
X64907396Y-46607000D01*
X65176907Y-46553391D01*
X65430780Y-46448233D01*
X65659261Y-46295567D01*
X65778691Y-46176137D01*
X66525469Y-46176137D01*
X66592206Y-46416025D01*
X66840892Y-46532924D01*
X67107606Y-46599061D01*
X67382097Y-46611895D01*
X67653817Y-46570931D01*
X67912326Y-46477744D01*
X68027794Y-46416025D01*
X68094531Y-46176137D01*
X67310000Y-45391605D01*
X66525469Y-46176137D01*
X65778691Y-46176137D01*
X65853567Y-46101261D01*
X66006233Y-45872780D01*
X66037830Y-45796499D01*
X66044256Y-45814326D01*
X66105975Y-45929794D01*
X66345863Y-45996531D01*
X67130395Y-45212000D01*
X67489605Y-45212000D01*
X68274137Y-45996531D01*
X68514025Y-45929794D01*
X68630924Y-45681108D01*
X68697061Y-45414394D01*
X68709895Y-45139903D01*
X68668931Y-44868183D01*
X68575744Y-44609674D01*
X68514025Y-44494206D01*
X68274137Y-44427469D01*
X67489605Y-45212000D01*
X67130395Y-45212000D01*
X66345863Y-44427469D01*
X66105975Y-44494206D01*
X66040400Y-44633707D01*
X66006233Y-44551220D01*
X65853567Y-44322739D01*
X65778691Y-44247863D01*
X66525469Y-44247863D01*
X67310000Y-45032395D01*
X68094531Y-44247863D01*
X68027794Y-44007975D01*
X67779108Y-43891076D01*
X67512394Y-43824939D01*
X67237903Y-43812105D01*
X66966183Y-43853069D01*
X66707674Y-43946256D01*
X66592206Y-44007975D01*
X66525469Y-44247863D01*
X65778691Y-44247863D01*
X65747203Y-44216375D01*
X65897578Y-44066000D01*
X65902604Y-44067000D01*
X66177396Y-44067000D01*
X66446907Y-44013391D01*
X66700780Y-43908233D01*
X66929261Y-43755567D01*
X67123567Y-43561261D01*
X67276233Y-43332780D01*
X67381391Y-43078907D01*
X67435000Y-42809396D01*
X67435000Y-42534604D01*
X67381391Y-42265093D01*
X67276233Y-42011220D01*
X67123567Y-41782739D01*
X66929261Y-41588433D01*
X66700780Y-41435767D01*
X66446907Y-41330609D01*
X66177396Y-41277000D01*
X65902604Y-41277000D01*
X65633093Y-41330609D01*
X65379220Y-41435767D01*
X65150739Y-41588433D01*
X64956433Y-41782739D01*
X64803767Y-42011220D01*
X64772170Y-42087501D01*
X64765744Y-42069674D01*
X64704025Y-41954206D01*
X64464137Y-41887469D01*
X63679605Y-42672000D01*
X63693748Y-42686143D01*
X63514143Y-42865748D01*
X63500000Y-42851605D01*
X63485858Y-42865748D01*
X63306253Y-42686143D01*
X63320395Y-42672000D01*
X62535863Y-41887469D01*
X62358072Y-41936931D01*
X62358072Y-41912000D01*
X62345812Y-41787518D01*
X62321649Y-41707863D01*
X62715469Y-41707863D01*
X63500000Y-42492395D01*
X64284531Y-41707863D01*
X64217794Y-41467975D01*
X63969108Y-41351076D01*
X63702394Y-41284939D01*
X63427903Y-41272105D01*
X63156183Y-41313069D01*
X62897674Y-41406256D01*
X62782206Y-41467975D01*
X62715469Y-41707863D01*
X62321649Y-41707863D01*
X62309502Y-41667820D01*
X62250537Y-41557506D01*
X62171185Y-41460815D01*
X62095000Y-41398292D01*
X62095000Y-39078131D01*
X62096131Y-39077000D01*
X62122260Y-39077000D01*
X62409158Y-39019932D01*
X62679411Y-38907990D01*
X62922632Y-38745475D01*
X63129475Y-38538632D01*
X63291990Y-38295411D01*
X63403932Y-38025158D01*
X63461000Y-37738260D01*
X63461000Y-37445740D01*
X63403932Y-37158842D01*
X63291990Y-36888589D01*
X63129475Y-36645368D01*
X62997620Y-36513513D01*
X63070180Y-36491502D01*
X63180494Y-36432537D01*
X63277185Y-36353185D01*
X63356537Y-36256494D01*
X63415502Y-36146180D01*
X63451812Y-36026482D01*
X63464072Y-35902000D01*
X63464072Y-34202000D01*
X63451812Y-34077518D01*
X63415502Y-33957820D01*
X63356537Y-33847506D01*
X63277185Y-33750815D01*
X63180494Y-33671463D01*
X63070180Y-33612498D01*
X62950482Y-33576188D01*
X62826000Y-33563928D01*
X61126000Y-33563928D01*
X61001518Y-33576188D01*
X60881820Y-33612498D01*
X60771506Y-33671463D01*
X60674815Y-33750815D01*
X60595463Y-33847506D01*
X60558317Y-33917000D01*
X60120132Y-33917000D01*
X59450072Y-33246941D01*
X59450072Y-32134285D01*
X63729000Y-32134285D01*
X63729000Y-32889715D01*
X63876377Y-33630628D01*
X64165467Y-34328554D01*
X64585161Y-34956670D01*
X65119330Y-35490839D01*
X65747446Y-35910533D01*
X66445372Y-36199623D01*
X67186285Y-36347000D01*
X67941715Y-36347000D01*
X68682628Y-36199623D01*
X69380554Y-35910533D01*
X70008670Y-35490839D01*
X70542839Y-34956670D01*
X70962533Y-34328554D01*
X71251623Y-33630628D01*
X71399000Y-32889715D01*
X71399000Y-32134285D01*
X71251623Y-31393372D01*
X70962533Y-30695446D01*
X70542839Y-30067330D01*
X70008670Y-29533161D01*
X69380554Y-29113467D01*
X68682628Y-28824377D01*
X67941715Y-28677000D01*
X67186285Y-28677000D01*
X66445372Y-28824377D01*
X65747446Y-29113467D01*
X65119330Y-29533161D01*
X64585161Y-30067330D01*
X64165467Y-30695446D01*
X63876377Y-31393372D01*
X63729000Y-32134285D01*
X59450072Y-32134285D01*
X59450072Y-31564000D01*
X59437812Y-31439518D01*
X59401502Y-31319820D01*
X59342537Y-31209506D01*
X59263185Y-31112815D01*
X59166494Y-31033463D01*
X59056180Y-30974498D01*
X58936482Y-30938188D01*
X58812000Y-30925928D01*
X57012000Y-30925928D01*
X56887518Y-30938188D01*
X56767820Y-30974498D01*
X56657506Y-31033463D01*
X56560815Y-31112815D01*
X56481463Y-31209506D01*
X56422498Y-31319820D01*
X56386188Y-31439518D01*
X56373928Y-31564000D01*
X56373928Y-35064000D01*
X56386188Y-35188482D01*
X56422498Y-35308180D01*
X56481463Y-35418494D01*
X56560815Y-35515185D01*
X56657506Y-35594537D01*
X56767820Y-35653502D01*
X56887518Y-35689812D01*
X57012000Y-35702072D01*
X58694940Y-35702072D01*
X58808009Y-35815140D01*
X58843551Y-35858449D01*
X58943194Y-35940224D01*
X58936482Y-35938188D01*
X58812000Y-35925928D01*
X57012000Y-35925928D01*
X56887518Y-35938188D01*
X56767820Y-35974498D01*
X56657506Y-36033463D01*
X56560815Y-36112815D01*
X56481463Y-36209506D01*
X56422498Y-36319820D01*
X56386188Y-36439518D01*
X56373928Y-36564000D01*
X56373928Y-39810938D01*
X55546010Y-40638857D01*
X55439715Y-40768378D01*
X55334322Y-40965554D01*
X55269421Y-41179502D01*
X55247507Y-41402000D01*
X55269421Y-41624498D01*
X55334322Y-41838446D01*
X55439715Y-42035622D01*
X55581550Y-42208448D01*
X55754376Y-42350283D01*
X55951552Y-42455676D01*
X56165500Y-42520577D01*
X56387998Y-42542491D01*
X56610496Y-42520577D01*
X56824444Y-42455676D01*
X57021620Y-42350283D01*
X57151141Y-42243988D01*
X58693058Y-40702072D01*
X58812000Y-40702072D01*
X58936482Y-40689812D01*
X59056180Y-40653502D01*
X59166494Y-40594537D01*
X59263185Y-40515185D01*
X59342537Y-40418494D01*
X59401502Y-40308180D01*
X59437812Y-40188482D01*
X59450072Y-40064000D01*
X59450072Y-36564000D01*
X59437812Y-36439518D01*
X59401502Y-36319820D01*
X59342537Y-36209506D01*
X59271836Y-36123356D01*
X59347076Y-36146180D01*
X59427500Y-36170577D01*
X59448493Y-36172644D01*
X59594248Y-36187000D01*
X59594255Y-36187000D01*
X59649999Y-36192490D01*
X59705743Y-36187000D01*
X60558317Y-36187000D01*
X60595463Y-36256494D01*
X60674815Y-36353185D01*
X60771506Y-36432537D01*
X60881820Y-36491502D01*
X60954380Y-36513513D01*
X60822525Y-36645368D01*
X60660010Y-36888589D01*
X60548068Y-37158842D01*
X60491000Y-37445740D01*
X60491000Y-37471869D01*
X60196860Y-37766009D01*
X60153552Y-37801551D01*
X60011717Y-37974377D01*
X60008231Y-37980899D01*
X59906324Y-38171554D01*
X59841423Y-38385502D01*
X59819509Y-38608000D01*
X59825001Y-38663761D01*
X59825000Y-41398292D01*
X59748815Y-41460815D01*
X59669463Y-41557506D01*
X59610498Y-41667820D01*
X59574188Y-41787518D01*
X59561928Y-41912000D01*
X59561928Y-43432000D01*
X59574188Y-43556482D01*
X59610498Y-43676180D01*
X59669463Y-43786494D01*
X59748815Y-43883185D01*
X59845506Y-43962537D01*
X59955820Y-44021502D01*
X60075518Y-44057812D01*
X60098360Y-44060062D01*
X59931412Y-44227010D01*
X54949846Y-44227010D01*
X54975236Y-44143309D01*
X55002943Y-43862000D01*
X54975236Y-43580691D01*
X54893182Y-43310192D01*
X54759932Y-43060899D01*
X54580608Y-42842392D01*
X54362101Y-42663068D01*
X54229142Y-42592000D01*
X54362101Y-42520932D01*
X54580608Y-42341608D01*
X54759932Y-42123101D01*
X54893182Y-41873808D01*
X54975236Y-41603309D01*
X55002943Y-41322000D01*
X54975236Y-41040691D01*
X54893182Y-40770192D01*
X54759932Y-40520899D01*
X54580608Y-40302392D01*
X54362101Y-40123068D01*
X54229142Y-40052000D01*
X54362101Y-39980932D01*
X54580608Y-39801608D01*
X54759932Y-39583101D01*
X54893182Y-39333808D01*
X54975236Y-39063309D01*
X55002943Y-38782000D01*
X54975236Y-38500691D01*
X54893182Y-38230192D01*
X54759932Y-37980899D01*
X54580608Y-37762392D01*
X54362101Y-37583068D01*
X54229142Y-37512000D01*
X54362101Y-37440932D01*
X54580608Y-37261608D01*
X54759932Y-37043101D01*
X54893182Y-36793808D01*
X54975236Y-36523309D01*
X55002943Y-36242000D01*
X54975236Y-35960691D01*
X54893182Y-35690192D01*
X54759932Y-35440899D01*
X54580608Y-35222392D01*
X54362101Y-35043068D01*
X54229142Y-34972000D01*
X54362101Y-34900932D01*
X54580608Y-34721608D01*
X54759932Y-34503101D01*
X54893182Y-34253808D01*
X54975236Y-33983309D01*
X55002943Y-33702000D01*
X54975236Y-33420691D01*
X54893182Y-33150192D01*
X54759932Y-32900899D01*
X54580608Y-32682392D01*
X54527735Y-32639000D01*
X55118000Y-32639000D01*
X55142776Y-32636560D01*
X55166601Y-32629333D01*
X55188557Y-32617597D01*
X55207803Y-32601803D01*
X55223597Y-32582557D01*
X55235333Y-32560601D01*
X55242560Y-32536776D01*
X55245000Y-32512000D01*
X55245000Y-28600000D01*
X71476001Y-28600000D01*
X71476000Y-59284000D01*
G37*
%TD.AperFunction*%
D25*
X52141392Y-32682392D02*
X51962068Y-32900899D01*
X51828818Y-33150192D01*
X51746764Y-33420691D01*
X51719057Y-33702000D01*
X51746764Y-33983309D01*
X51828818Y-34253808D01*
X51962068Y-34503101D01*
X52141392Y-34721608D01*
X52359899Y-34900932D01*
X52492858Y-34972000D01*
X52359899Y-35043068D01*
X52141392Y-35222392D01*
X51962068Y-35440899D01*
X51828818Y-35690192D01*
X51746764Y-35960691D01*
X51719057Y-36242000D01*
X51746764Y-36523309D01*
X51828818Y-36793808D01*
X51962068Y-37043101D01*
X52141392Y-37261608D01*
X52359899Y-37440932D01*
X52492858Y-37512000D01*
X52359899Y-37583068D01*
X52141392Y-37762392D01*
X51962068Y-37980899D01*
X51828818Y-38230192D01*
X51746764Y-38500691D01*
X51719057Y-38782000D01*
X51746764Y-39063309D01*
X51828818Y-39333808D01*
X51962068Y-39583101D01*
X52141392Y-39801608D01*
X52359899Y-39980932D01*
X52492858Y-40052000D01*
X52359899Y-40123068D01*
X52141392Y-40302392D01*
X51962068Y-40520899D01*
X51828818Y-40770192D01*
X51746764Y-41040691D01*
X51719057Y-41322000D01*
X51746764Y-41603309D01*
X51828818Y-41873808D01*
X51962068Y-42123101D01*
X52141392Y-42341608D01*
X52359899Y-42520932D01*
X52492858Y-42592000D01*
X52359899Y-42663068D01*
X52141392Y-42842392D01*
X51962068Y-43060899D01*
X51828818Y-43310192D01*
X51746764Y-43580691D01*
X51719057Y-43862000D01*
X51746764Y-44143309D01*
X51772154Y-44227010D01*
X49410456Y-44227010D01*
X49366989Y-44222729D01*
X49323523Y-44227010D01*
X49323513Y-44227010D01*
X49193500Y-44239815D01*
X49026677Y-44290421D01*
X48872931Y-44372599D01*
X48872929Y-44372600D01*
X48872930Y-44372600D01*
X48771943Y-44455478D01*
X48771941Y-44455480D01*
X48738173Y-44483193D01*
X48710460Y-44516961D01*
X48602493Y-44624928D01*
X48063999Y-44624928D01*
X47890745Y-44641992D01*
X47724149Y-44692528D01*
X47570613Y-44774595D01*
X47436038Y-44885038D01*
X47371000Y-44964287D01*
X47305962Y-44885038D01*
X47171387Y-44774595D01*
X47017851Y-44692528D01*
X46851255Y-44641992D01*
X46678001Y-44624928D01*
X45777999Y-44624928D01*
X45604745Y-44641992D01*
X45438149Y-44692528D01*
X45284613Y-44774595D01*
X45150038Y-44885038D01*
X45039595Y-45019613D01*
X44957528Y-45173149D01*
X44906992Y-45339745D01*
X44889928Y-45512999D01*
X44889928Y-46051350D01*
X44025072Y-45186494D01*
X44025072Y-43778000D01*
X44012812Y-43653518D01*
X43976502Y-43533820D01*
X43917537Y-43423506D01*
X43838185Y-43326815D01*
X43741494Y-43247463D01*
X43631180Y-43188498D01*
X43511482Y-43152188D01*
X43387000Y-43139928D01*
X42587000Y-43139928D01*
X42462518Y-43152188D01*
X42342820Y-43188498D01*
X42232506Y-43247463D01*
X42135815Y-43326815D01*
X42056463Y-43423506D01*
X42037000Y-43459918D01*
X42017537Y-43423506D01*
X41938185Y-43326815D01*
X41841494Y-43247463D01*
X41731180Y-43188498D01*
X41611482Y-43152188D01*
X41487000Y-43139928D01*
X41372750Y-43143000D01*
X41214000Y-43301750D01*
X41214000Y-44601000D01*
X41234000Y-44601000D01*
X41234000Y-44855000D01*
X41214000Y-44855000D01*
X41214000Y-46154250D01*
X41298607Y-46238857D01*
X41282506Y-46247463D01*
X41185815Y-46326815D01*
X41106463Y-46423506D01*
X41047498Y-46533820D01*
X41011188Y-46653518D01*
X40998928Y-46778000D01*
X40998928Y-48678000D01*
X41001088Y-48699928D01*
X40686999Y-48699928D01*
X40513745Y-48716992D01*
X40347149Y-48767528D01*
X40193613Y-48849595D01*
X40059038Y-48960038D01*
X39948595Y-49094613D01*
X39917386Y-49153000D01*
X34503579Y-49153000D01*
X32096303Y-46745724D01*
X32115236Y-46683309D01*
X32142943Y-46402000D01*
X32115236Y-46120691D01*
X32033182Y-45850192D01*
X31941144Y-45678000D01*
X40048928Y-45678000D01*
X40061188Y-45802482D01*
X40097498Y-45922180D01*
X40156463Y-46032494D01*
X40235815Y-46129185D01*
X40332506Y-46208537D01*
X40442820Y-46267502D01*
X40562518Y-46303812D01*
X40687000Y-46316072D01*
X40801250Y-46313000D01*
X40960000Y-46154250D01*
X40960000Y-44855000D01*
X40210750Y-44855000D01*
X40052000Y-45013750D01*
X40048928Y-45678000D01*
X31941144Y-45678000D01*
X31899932Y-45600899D01*
X31720608Y-45382392D01*
X31502101Y-45203068D01*
X31369142Y-45132000D01*
X31502101Y-45060932D01*
X31720608Y-44881608D01*
X31899932Y-44663101D01*
X32033182Y-44413808D01*
X32115236Y-44143309D01*
X32142943Y-43862000D01*
X32134670Y-43778000D01*
X40048928Y-43778000D01*
X40052000Y-44442250D01*
X40210750Y-44601000D01*
X40960000Y-44601000D01*
X40960000Y-43301750D01*
X40801250Y-43143000D01*
X40687000Y-43139928D01*
X40562518Y-43152188D01*
X40442820Y-43188498D01*
X40332506Y-43247463D01*
X40235815Y-43326815D01*
X40156463Y-43423506D01*
X40097498Y-43533820D01*
X40061188Y-43653518D01*
X40048928Y-43778000D01*
X32134670Y-43778000D01*
X32115236Y-43580691D01*
X32033182Y-43310192D01*
X31899932Y-43060899D01*
X31720608Y-42842392D01*
X31502101Y-42663068D01*
X31369142Y-42592000D01*
X31502101Y-42520932D01*
X31720608Y-42341608D01*
X31899932Y-42123101D01*
X32033182Y-41873808D01*
X32115236Y-41603309D01*
X32142943Y-41322000D01*
X32115236Y-41040691D01*
X32033182Y-40770192D01*
X31899932Y-40520899D01*
X31720608Y-40302392D01*
X31502101Y-40123068D01*
X31369142Y-40052000D01*
X31502101Y-39980932D01*
X31720608Y-39801608D01*
X31899932Y-39583101D01*
X32033182Y-39333808D01*
X32115236Y-39063309D01*
X32142943Y-38782000D01*
X32115236Y-38500691D01*
X32033182Y-38230192D01*
X31899932Y-37980899D01*
X31720608Y-37762392D01*
X31502101Y-37583068D01*
X31369142Y-37512000D01*
X31502101Y-37440932D01*
X31720608Y-37261608D01*
X31759444Y-37214285D01*
X32233000Y-37214285D01*
X32233000Y-37969715D01*
X32380377Y-38710628D01*
X32669467Y-39408554D01*
X33089161Y-40036670D01*
X33623330Y-40570839D01*
X34251446Y-40990533D01*
X34949372Y-41279623D01*
X35690285Y-41427000D01*
X36445715Y-41427000D01*
X37186628Y-41279623D01*
X37884554Y-40990533D01*
X38029025Y-40894000D01*
X40007509Y-40894000D01*
X40029423Y-41116498D01*
X40094324Y-41330446D01*
X40199717Y-41527622D01*
X40341552Y-41700448D01*
X40514378Y-41842283D01*
X40711554Y-41947676D01*
X40925502Y-42012577D01*
X41148000Y-42034491D01*
X41370498Y-42012577D01*
X41584446Y-41947676D01*
X41608161Y-41935000D01*
X45043928Y-41935000D01*
X45043928Y-42300000D01*
X45060992Y-42473254D01*
X45111528Y-42639850D01*
X45193595Y-42793386D01*
X45304038Y-42927962D01*
X45438614Y-43038405D01*
X45592150Y-43120472D01*
X45758746Y-43171008D01*
X45932000Y-43188072D01*
X47032000Y-43188072D01*
X47205254Y-43171008D01*
X47371850Y-43120472D01*
X47525386Y-43038405D01*
X47659962Y-42927962D01*
X47770405Y-42793386D01*
X47852472Y-42639850D01*
X47903008Y-42473254D01*
X47920072Y-42300000D01*
X47920072Y-39300000D01*
X47903008Y-39126746D01*
X47852472Y-38960150D01*
X47770405Y-38806614D01*
X47659962Y-38672038D01*
X47525386Y-38561595D01*
X47371850Y-38479528D01*
X47205254Y-38428992D01*
X47032000Y-38411928D01*
X45932000Y-38411928D01*
X45758746Y-38428992D01*
X45592150Y-38479528D01*
X45438614Y-38561595D01*
X45304038Y-38672038D01*
X45193595Y-38806614D01*
X45111528Y-38960150D01*
X45060992Y-39126746D01*
X45043928Y-39300000D01*
X45043928Y-39665000D01*
X41297751Y-39665000D01*
X41241999Y-39659509D01*
X41186248Y-39665000D01*
X41019501Y-39681423D01*
X40805553Y-39746324D01*
X40608377Y-39851716D01*
X40435551Y-39993551D01*
X40400004Y-40036865D01*
X40306012Y-40130857D01*
X40199717Y-40260378D01*
X40094324Y-40457554D01*
X40029423Y-40671502D01*
X40007509Y-40894000D01*
X38029025Y-40894000D01*
X38512670Y-40570839D01*
X39046839Y-40036670D01*
X39466533Y-39408554D01*
X39755623Y-38710628D01*
X39903000Y-37969715D01*
X39903000Y-37214285D01*
X39890213Y-37150000D01*
X45043928Y-37150000D01*
X45056188Y-37274482D01*
X45092498Y-37394180D01*
X45151463Y-37504494D01*
X45230815Y-37601185D01*
X45327506Y-37680537D01*
X45437820Y-37739502D01*
X45557518Y-37775812D01*
X45682000Y-37788072D01*
X46196250Y-37785000D01*
X46355000Y-37626250D01*
X46355000Y-35527000D01*
X46609000Y-35527000D01*
X46609000Y-37626250D01*
X46767750Y-37785000D01*
X47282000Y-37788072D01*
X47406482Y-37775812D01*
X47526180Y-37739502D01*
X47636494Y-37680537D01*
X47733185Y-37601185D01*
X47812537Y-37504494D01*
X47871502Y-37394180D01*
X47907812Y-37274482D01*
X47920072Y-37150000D01*
X47917000Y-35685750D01*
X47758250Y-35527000D01*
X46609000Y-35527000D01*
X46355000Y-35527000D01*
X45205750Y-35527000D01*
X45047000Y-35685750D01*
X45043928Y-37150000D01*
X39890213Y-37150000D01*
X39755623Y-36473372D01*
X39466533Y-35775446D01*
X39046839Y-35147330D01*
X38512670Y-34613161D01*
X37884554Y-34193467D01*
X37186628Y-33904377D01*
X36445715Y-33757000D01*
X35690285Y-33757000D01*
X34949372Y-33904377D01*
X34251446Y-34193467D01*
X33623330Y-34613161D01*
X33089161Y-35147330D01*
X32669467Y-35775446D01*
X32380377Y-36473372D01*
X32233000Y-37214285D01*
X31759444Y-37214285D01*
X31899932Y-37043101D01*
X32033182Y-36793808D01*
X32115236Y-36523309D01*
X32142943Y-36242000D01*
X32115236Y-35960691D01*
X32033182Y-35690192D01*
X31899932Y-35440899D01*
X31767524Y-35279559D01*
X31855494Y-35232537D01*
X31952185Y-35153185D01*
X32031537Y-35056494D01*
X32090502Y-34946180D01*
X32126812Y-34826482D01*
X32139072Y-34702000D01*
X32139072Y-33650000D01*
X45043928Y-33650000D01*
X45047000Y-35114250D01*
X45205750Y-35273000D01*
X46355000Y-35273000D01*
X46355000Y-33173750D01*
X46609000Y-33173750D01*
X46609000Y-35273000D01*
X47758250Y-35273000D01*
X47917000Y-35114250D01*
X47920072Y-33650000D01*
X47907812Y-33525518D01*
X47871502Y-33405820D01*
X47812537Y-33295506D01*
X47733185Y-33198815D01*
X47636494Y-33119463D01*
X47526180Y-33060498D01*
X47406482Y-33024188D01*
X47282000Y-33011928D01*
X46767750Y-33015000D01*
X46609000Y-33173750D01*
X46355000Y-33173750D01*
X46196250Y-33015000D01*
X45682000Y-33011928D01*
X45557518Y-33024188D01*
X45437820Y-33060498D01*
X45327506Y-33119463D01*
X45230815Y-33198815D01*
X45151463Y-33295506D01*
X45092498Y-33405820D01*
X45056188Y-33525518D01*
X45043928Y-33650000D01*
X32139072Y-33650000D01*
X32139072Y-32702000D01*
X32132867Y-32639000D01*
X52194265Y-32639000D01*
X52141392Y-32682392D01*
%TA.AperFunction,Conductor*%
D26*
G36*
X52141392Y-32682392D02*
G01*
X51962068Y-32900899D01*
X51828818Y-33150192D01*
X51746764Y-33420691D01*
X51719057Y-33702000D01*
X51746764Y-33983309D01*
X51828818Y-34253808D01*
X51962068Y-34503101D01*
X52141392Y-34721608D01*
X52359899Y-34900932D01*
X52492858Y-34972000D01*
X52359899Y-35043068D01*
X52141392Y-35222392D01*
X51962068Y-35440899D01*
X51828818Y-35690192D01*
X51746764Y-35960691D01*
X51719057Y-36242000D01*
X51746764Y-36523309D01*
X51828818Y-36793808D01*
X51962068Y-37043101D01*
X52141392Y-37261608D01*
X52359899Y-37440932D01*
X52492858Y-37512000D01*
X52359899Y-37583068D01*
X52141392Y-37762392D01*
X51962068Y-37980899D01*
X51828818Y-38230192D01*
X51746764Y-38500691D01*
X51719057Y-38782000D01*
X51746764Y-39063309D01*
X51828818Y-39333808D01*
X51962068Y-39583101D01*
X52141392Y-39801608D01*
X52359899Y-39980932D01*
X52492858Y-40052000D01*
X52359899Y-40123068D01*
X52141392Y-40302392D01*
X51962068Y-40520899D01*
X51828818Y-40770192D01*
X51746764Y-41040691D01*
X51719057Y-41322000D01*
X51746764Y-41603309D01*
X51828818Y-41873808D01*
X51962068Y-42123101D01*
X52141392Y-42341608D01*
X52359899Y-42520932D01*
X52492858Y-42592000D01*
X52359899Y-42663068D01*
X52141392Y-42842392D01*
X51962068Y-43060899D01*
X51828818Y-43310192D01*
X51746764Y-43580691D01*
X51719057Y-43862000D01*
X51746764Y-44143309D01*
X51772154Y-44227010D01*
X49410456Y-44227010D01*
X49366989Y-44222729D01*
X49323523Y-44227010D01*
X49323513Y-44227010D01*
X49193500Y-44239815D01*
X49026677Y-44290421D01*
X48872931Y-44372599D01*
X48872929Y-44372600D01*
X48872930Y-44372600D01*
X48771943Y-44455478D01*
X48771941Y-44455480D01*
X48738173Y-44483193D01*
X48710460Y-44516961D01*
X48602493Y-44624928D01*
X48063999Y-44624928D01*
X47890745Y-44641992D01*
X47724149Y-44692528D01*
X47570613Y-44774595D01*
X47436038Y-44885038D01*
X47371000Y-44964287D01*
X47305962Y-44885038D01*
X47171387Y-44774595D01*
X47017851Y-44692528D01*
X46851255Y-44641992D01*
X46678001Y-44624928D01*
X45777999Y-44624928D01*
X45604745Y-44641992D01*
X45438149Y-44692528D01*
X45284613Y-44774595D01*
X45150038Y-44885038D01*
X45039595Y-45019613D01*
X44957528Y-45173149D01*
X44906992Y-45339745D01*
X44889928Y-45512999D01*
X44889928Y-46051350D01*
X44025072Y-45186494D01*
X44025072Y-43778000D01*
X44012812Y-43653518D01*
X43976502Y-43533820D01*
X43917537Y-43423506D01*
X43838185Y-43326815D01*
X43741494Y-43247463D01*
X43631180Y-43188498D01*
X43511482Y-43152188D01*
X43387000Y-43139928D01*
X42587000Y-43139928D01*
X42462518Y-43152188D01*
X42342820Y-43188498D01*
X42232506Y-43247463D01*
X42135815Y-43326815D01*
X42056463Y-43423506D01*
X42037000Y-43459918D01*
X42017537Y-43423506D01*
X41938185Y-43326815D01*
X41841494Y-43247463D01*
X41731180Y-43188498D01*
X41611482Y-43152188D01*
X41487000Y-43139928D01*
X41372750Y-43143000D01*
X41214000Y-43301750D01*
X41214000Y-44601000D01*
X41234000Y-44601000D01*
X41234000Y-44855000D01*
X41214000Y-44855000D01*
X41214000Y-46154250D01*
X41298607Y-46238857D01*
X41282506Y-46247463D01*
X41185815Y-46326815D01*
X41106463Y-46423506D01*
X41047498Y-46533820D01*
X41011188Y-46653518D01*
X40998928Y-46778000D01*
X40998928Y-48678000D01*
X41001088Y-48699928D01*
X40686999Y-48699928D01*
X40513745Y-48716992D01*
X40347149Y-48767528D01*
X40193613Y-48849595D01*
X40059038Y-48960038D01*
X39948595Y-49094613D01*
X39917386Y-49153000D01*
X34503579Y-49153000D01*
X32096303Y-46745724D01*
X32115236Y-46683309D01*
X32142943Y-46402000D01*
X32115236Y-46120691D01*
X32033182Y-45850192D01*
X31941144Y-45678000D01*
X40048928Y-45678000D01*
X40061188Y-45802482D01*
X40097498Y-45922180D01*
X40156463Y-46032494D01*
X40235815Y-46129185D01*
X40332506Y-46208537D01*
X40442820Y-46267502D01*
X40562518Y-46303812D01*
X40687000Y-46316072D01*
X40801250Y-46313000D01*
X40960000Y-46154250D01*
X40960000Y-44855000D01*
X40210750Y-44855000D01*
X40052000Y-45013750D01*
X40048928Y-45678000D01*
X31941144Y-45678000D01*
X31899932Y-45600899D01*
X31720608Y-45382392D01*
X31502101Y-45203068D01*
X31369142Y-45132000D01*
X31502101Y-45060932D01*
X31720608Y-44881608D01*
X31899932Y-44663101D01*
X32033182Y-44413808D01*
X32115236Y-44143309D01*
X32142943Y-43862000D01*
X32134670Y-43778000D01*
X40048928Y-43778000D01*
X40052000Y-44442250D01*
X40210750Y-44601000D01*
X40960000Y-44601000D01*
X40960000Y-43301750D01*
X40801250Y-43143000D01*
X40687000Y-43139928D01*
X40562518Y-43152188D01*
X40442820Y-43188498D01*
X40332506Y-43247463D01*
X40235815Y-43326815D01*
X40156463Y-43423506D01*
X40097498Y-43533820D01*
X40061188Y-43653518D01*
X40048928Y-43778000D01*
X32134670Y-43778000D01*
X32115236Y-43580691D01*
X32033182Y-43310192D01*
X31899932Y-43060899D01*
X31720608Y-42842392D01*
X31502101Y-42663068D01*
X31369142Y-42592000D01*
X31502101Y-42520932D01*
X31720608Y-42341608D01*
X31899932Y-42123101D01*
X32033182Y-41873808D01*
X32115236Y-41603309D01*
X32142943Y-41322000D01*
X32115236Y-41040691D01*
X32033182Y-40770192D01*
X31899932Y-40520899D01*
X31720608Y-40302392D01*
X31502101Y-40123068D01*
X31369142Y-40052000D01*
X31502101Y-39980932D01*
X31720608Y-39801608D01*
X31899932Y-39583101D01*
X32033182Y-39333808D01*
X32115236Y-39063309D01*
X32142943Y-38782000D01*
X32115236Y-38500691D01*
X32033182Y-38230192D01*
X31899932Y-37980899D01*
X31720608Y-37762392D01*
X31502101Y-37583068D01*
X31369142Y-37512000D01*
X31502101Y-37440932D01*
X31720608Y-37261608D01*
X31759444Y-37214285D01*
X32233000Y-37214285D01*
X32233000Y-37969715D01*
X32380377Y-38710628D01*
X32669467Y-39408554D01*
X33089161Y-40036670D01*
X33623330Y-40570839D01*
X34251446Y-40990533D01*
X34949372Y-41279623D01*
X35690285Y-41427000D01*
X36445715Y-41427000D01*
X37186628Y-41279623D01*
X37884554Y-40990533D01*
X38029025Y-40894000D01*
X40007509Y-40894000D01*
X40029423Y-41116498D01*
X40094324Y-41330446D01*
X40199717Y-41527622D01*
X40341552Y-41700448D01*
X40514378Y-41842283D01*
X40711554Y-41947676D01*
X40925502Y-42012577D01*
X41148000Y-42034491D01*
X41370498Y-42012577D01*
X41584446Y-41947676D01*
X41608161Y-41935000D01*
X45043928Y-41935000D01*
X45043928Y-42300000D01*
X45060992Y-42473254D01*
X45111528Y-42639850D01*
X45193595Y-42793386D01*
X45304038Y-42927962D01*
X45438614Y-43038405D01*
X45592150Y-43120472D01*
X45758746Y-43171008D01*
X45932000Y-43188072D01*
X47032000Y-43188072D01*
X47205254Y-43171008D01*
X47371850Y-43120472D01*
X47525386Y-43038405D01*
X47659962Y-42927962D01*
X47770405Y-42793386D01*
X47852472Y-42639850D01*
X47903008Y-42473254D01*
X47920072Y-42300000D01*
X47920072Y-39300000D01*
X47903008Y-39126746D01*
X47852472Y-38960150D01*
X47770405Y-38806614D01*
X47659962Y-38672038D01*
X47525386Y-38561595D01*
X47371850Y-38479528D01*
X47205254Y-38428992D01*
X47032000Y-38411928D01*
X45932000Y-38411928D01*
X45758746Y-38428992D01*
X45592150Y-38479528D01*
X45438614Y-38561595D01*
X45304038Y-38672038D01*
X45193595Y-38806614D01*
X45111528Y-38960150D01*
X45060992Y-39126746D01*
X45043928Y-39300000D01*
X45043928Y-39665000D01*
X41297751Y-39665000D01*
X41241999Y-39659509D01*
X41186248Y-39665000D01*
X41019501Y-39681423D01*
X40805553Y-39746324D01*
X40608377Y-39851716D01*
X40435551Y-39993551D01*
X40400004Y-40036865D01*
X40306012Y-40130857D01*
X40199717Y-40260378D01*
X40094324Y-40457554D01*
X40029423Y-40671502D01*
X40007509Y-40894000D01*
X38029025Y-40894000D01*
X38512670Y-40570839D01*
X39046839Y-40036670D01*
X39466533Y-39408554D01*
X39755623Y-38710628D01*
X39903000Y-37969715D01*
X39903000Y-37214285D01*
X39890213Y-37150000D01*
X45043928Y-37150000D01*
X45056188Y-37274482D01*
X45092498Y-37394180D01*
X45151463Y-37504494D01*
X45230815Y-37601185D01*
X45327506Y-37680537D01*
X45437820Y-37739502D01*
X45557518Y-37775812D01*
X45682000Y-37788072D01*
X46196250Y-37785000D01*
X46355000Y-37626250D01*
X46355000Y-35527000D01*
X46609000Y-35527000D01*
X46609000Y-37626250D01*
X46767750Y-37785000D01*
X47282000Y-37788072D01*
X47406482Y-37775812D01*
X47526180Y-37739502D01*
X47636494Y-37680537D01*
X47733185Y-37601185D01*
X47812537Y-37504494D01*
X47871502Y-37394180D01*
X47907812Y-37274482D01*
X47920072Y-37150000D01*
X47917000Y-35685750D01*
X47758250Y-35527000D01*
X46609000Y-35527000D01*
X46355000Y-35527000D01*
X45205750Y-35527000D01*
X45047000Y-35685750D01*
X45043928Y-37150000D01*
X39890213Y-37150000D01*
X39755623Y-36473372D01*
X39466533Y-35775446D01*
X39046839Y-35147330D01*
X38512670Y-34613161D01*
X37884554Y-34193467D01*
X37186628Y-33904377D01*
X36445715Y-33757000D01*
X35690285Y-33757000D01*
X34949372Y-33904377D01*
X34251446Y-34193467D01*
X33623330Y-34613161D01*
X33089161Y-35147330D01*
X32669467Y-35775446D01*
X32380377Y-36473372D01*
X32233000Y-37214285D01*
X31759444Y-37214285D01*
X31899932Y-37043101D01*
X32033182Y-36793808D01*
X32115236Y-36523309D01*
X32142943Y-36242000D01*
X32115236Y-35960691D01*
X32033182Y-35690192D01*
X31899932Y-35440899D01*
X31767524Y-35279559D01*
X31855494Y-35232537D01*
X31952185Y-35153185D01*
X32031537Y-35056494D01*
X32090502Y-34946180D01*
X32126812Y-34826482D01*
X32139072Y-34702000D01*
X32139072Y-33650000D01*
X45043928Y-33650000D01*
X45047000Y-35114250D01*
X45205750Y-35273000D01*
X46355000Y-35273000D01*
X46355000Y-33173750D01*
X46609000Y-33173750D01*
X46609000Y-35273000D01*
X47758250Y-35273000D01*
X47917000Y-35114250D01*
X47920072Y-33650000D01*
X47907812Y-33525518D01*
X47871502Y-33405820D01*
X47812537Y-33295506D01*
X47733185Y-33198815D01*
X47636494Y-33119463D01*
X47526180Y-33060498D01*
X47406482Y-33024188D01*
X47282000Y-33011928D01*
X46767750Y-33015000D01*
X46609000Y-33173750D01*
X46355000Y-33173750D01*
X46196250Y-33015000D01*
X45682000Y-33011928D01*
X45557518Y-33024188D01*
X45437820Y-33060498D01*
X45327506Y-33119463D01*
X45230815Y-33198815D01*
X45151463Y-33295506D01*
X45092498Y-33405820D01*
X45056188Y-33525518D01*
X45043928Y-33650000D01*
X32139072Y-33650000D01*
X32139072Y-32702000D01*
X32132867Y-32639000D01*
X52194265Y-32639000D01*
X52141392Y-32682392D01*
G37*
%TD.AperFunction*%
%TD*%
M02*
