%TF.GenerationSoftware,KiCad,Pcbnew,(5.1.9)-1*%
%TF.CreationDate,2021-10-26T11:54:14+02:00*%
%TF.ProjectId,DSMR-esp,44534d52-2d65-4737-902e-6b696361645f,rev?*%
%TF.SameCoordinates,Original*%
%TF.FileFunction,Soldermask,Top*%
%TF.FilePolarity,Negative*%
%FSLAX46Y46*%
G04 Gerber Fmt 4.6, Leading zero omitted, Abs format (unit mm)*
G04 Created by KiCad (PCBNEW (5.1.9)-1) date 2021-10-26 11:54:14*
%MOMM*%
%LPD*%
G01*
G04 APERTURE LIST*
%ADD10O,1.700000X1.700000*%
%ADD11R,1.700000X1.700000*%
%ADD12C,0.800000*%
%ADD13C,6.400000*%
%ADD14R,0.800000X1.900000*%
%ADD15R,1.800000X3.500000*%
%ADD16O,2.000000X1.600000*%
%ADD17R,2.000000X2.000000*%
%ADD18C,0.100000*%
%ADD19R,1.520000X1.520000*%
%ADD20C,3.250000*%
%ADD21C,1.520000*%
G04 APERTURE END LIST*
D10*
%TO.C,JP2*%
X61976000Y-37592000D03*
D11*
X61976000Y-35052000D03*
%TD*%
D12*
%TO.C,H2*%
X69261056Y-30814944D03*
X67564000Y-30112000D03*
X65866944Y-30814944D03*
X65164000Y-32512000D03*
X65866944Y-34209056D03*
X67564000Y-34912000D03*
X69261056Y-34209056D03*
X69964000Y-32512000D03*
D13*
X67564000Y-32512000D03*
%TD*%
D12*
%TO.C,H1*%
X37765056Y-35894944D03*
X36068000Y-35192000D03*
X34370944Y-35894944D03*
X33668000Y-37592000D03*
X34370944Y-39289056D03*
X36068000Y-39992000D03*
X37765056Y-39289056D03*
X38468000Y-37592000D03*
D13*
X36068000Y-37592000D03*
%TD*%
D14*
%TO.C,Q1*%
X42037000Y-47728000D03*
X41087000Y-44728000D03*
X42987000Y-44728000D03*
%TD*%
D15*
%TO.C,D1*%
X57912000Y-33314000D03*
X57912000Y-38314000D03*
%TD*%
%TO.C,R4*%
G36*
G01*
X46857500Y-50095999D02*
X46857500Y-50996001D01*
G75*
G02*
X46607501Y-51246000I-249999J0D01*
G01*
X45957499Y-51246000D01*
G75*
G02*
X45707500Y-50996001I0J249999D01*
G01*
X45707500Y-50095999D01*
G75*
G02*
X45957499Y-49846000I249999J0D01*
G01*
X46607501Y-49846000D01*
G75*
G02*
X46857500Y-50095999I0J-249999D01*
G01*
G37*
G36*
G01*
X48907500Y-50095999D02*
X48907500Y-50996001D01*
G75*
G02*
X48657501Y-51246000I-249999J0D01*
G01*
X48007499Y-51246000D01*
G75*
G02*
X47757500Y-50996001I0J249999D01*
G01*
X47757500Y-50095999D01*
G75*
G02*
X48007499Y-49846000I249999J0D01*
G01*
X48657501Y-49846000D01*
G75*
G02*
X48907500Y-50095999I0J-249999D01*
G01*
G37*
%TD*%
%TO.C,C1*%
G36*
G01*
X47032000Y-37150000D02*
X45932000Y-37150000D01*
G75*
G02*
X45682000Y-36900000I0J250000D01*
G01*
X45682000Y-33900000D01*
G75*
G02*
X45932000Y-33650000I250000J0D01*
G01*
X47032000Y-33650000D01*
G75*
G02*
X47282000Y-33900000I0J-250000D01*
G01*
X47282000Y-36900000D01*
G75*
G02*
X47032000Y-37150000I-250000J0D01*
G01*
G37*
G36*
G01*
X47032000Y-42550000D02*
X45932000Y-42550000D01*
G75*
G02*
X45682000Y-42300000I0J250000D01*
G01*
X45682000Y-39300000D01*
G75*
G02*
X45932000Y-39050000I250000J0D01*
G01*
X47032000Y-39050000D01*
G75*
G02*
X47282000Y-39300000I0J-250000D01*
G01*
X47282000Y-42300000D01*
G75*
G02*
X47032000Y-42550000I-250000J0D01*
G01*
G37*
%TD*%
D16*
%TO.C,U1*%
X53361000Y-33702000D03*
X53361000Y-36242000D03*
X53361000Y-38782000D03*
X53361000Y-41322000D03*
X53361000Y-43862000D03*
X53361000Y-46402000D03*
X53361000Y-48942000D03*
X53361000Y-51482000D03*
X30501000Y-51482000D03*
X30501000Y-48942000D03*
X30501000Y-46402000D03*
X30501000Y-43862000D03*
X30501000Y-41322000D03*
X30501000Y-38782000D03*
D17*
X30501000Y-33702000D03*
D16*
X30501000Y-36242000D03*
%TD*%
%TO.C,R3*%
G36*
G01*
X48063999Y-47313000D02*
X48964001Y-47313000D01*
G75*
G02*
X49214000Y-47562999I0J-249999D01*
G01*
X49214000Y-48213001D01*
G75*
G02*
X48964001Y-48463000I-249999J0D01*
G01*
X48063999Y-48463000D01*
G75*
G02*
X47814000Y-48213001I0J249999D01*
G01*
X47814000Y-47562999D01*
G75*
G02*
X48063999Y-47313000I249999J0D01*
G01*
G37*
G36*
G01*
X48063999Y-45263000D02*
X48964001Y-45263000D01*
G75*
G02*
X49214000Y-45512999I0J-249999D01*
G01*
X49214000Y-46163001D01*
G75*
G02*
X48964001Y-46413000I-249999J0D01*
G01*
X48063999Y-46413000D01*
G75*
G02*
X47814000Y-46163001I0J249999D01*
G01*
X47814000Y-45512999D01*
G75*
G02*
X48063999Y-45263000I249999J0D01*
G01*
G37*
%TD*%
%TO.C,R2*%
G36*
G01*
X45777999Y-47313000D02*
X46678001Y-47313000D01*
G75*
G02*
X46928000Y-47562999I0J-249999D01*
G01*
X46928000Y-48213001D01*
G75*
G02*
X46678001Y-48463000I-249999J0D01*
G01*
X45777999Y-48463000D01*
G75*
G02*
X45528000Y-48213001I0J249999D01*
G01*
X45528000Y-47562999D01*
G75*
G02*
X45777999Y-47313000I249999J0D01*
G01*
G37*
G36*
G01*
X45777999Y-45263000D02*
X46678001Y-45263000D01*
G75*
G02*
X46928000Y-45512999I0J-249999D01*
G01*
X46928000Y-46163001D01*
G75*
G02*
X46678001Y-46413000I-249999J0D01*
G01*
X45777999Y-46413000D01*
G75*
G02*
X45528000Y-46163001I0J249999D01*
G01*
X45528000Y-45512999D01*
G75*
G02*
X45777999Y-45263000I249999J0D01*
G01*
G37*
%TD*%
%TO.C,R1*%
G36*
G01*
X42487000Y-50488001D02*
X42487000Y-49587999D01*
G75*
G02*
X42736999Y-49338000I249999J0D01*
G01*
X43387001Y-49338000D01*
G75*
G02*
X43637000Y-49587999I0J-249999D01*
G01*
X43637000Y-50488001D01*
G75*
G02*
X43387001Y-50738000I-249999J0D01*
G01*
X42736999Y-50738000D01*
G75*
G02*
X42487000Y-50488001I0J249999D01*
G01*
G37*
G36*
G01*
X40437000Y-50488001D02*
X40437000Y-49587999D01*
G75*
G02*
X40686999Y-49338000I249999J0D01*
G01*
X41337001Y-49338000D01*
G75*
G02*
X41587000Y-49587999I0J-249999D01*
G01*
X41587000Y-50488001D01*
G75*
G02*
X41337001Y-50738000I-249999J0D01*
G01*
X40686999Y-50738000D01*
G75*
G02*
X40437000Y-50488001I0J249999D01*
G01*
G37*
%TD*%
D18*
%TO.C,JP1*%
G36*
X41887000Y-53709000D02*
G01*
X41387000Y-53709000D01*
X41387000Y-53708398D01*
X41362466Y-53708398D01*
X41313635Y-53703588D01*
X41265510Y-53694016D01*
X41218555Y-53679772D01*
X41173222Y-53660995D01*
X41129949Y-53637864D01*
X41089150Y-53610604D01*
X41051221Y-53579476D01*
X41016524Y-53544779D01*
X40985396Y-53506850D01*
X40958136Y-53466051D01*
X40935005Y-53422778D01*
X40916228Y-53377445D01*
X40901984Y-53330490D01*
X40892412Y-53282365D01*
X40887602Y-53233534D01*
X40887602Y-53209000D01*
X40887000Y-53209000D01*
X40887000Y-52709000D01*
X40887602Y-52709000D01*
X40887602Y-52684466D01*
X40892412Y-52635635D01*
X40901984Y-52587510D01*
X40916228Y-52540555D01*
X40935005Y-52495222D01*
X40958136Y-52451949D01*
X40985396Y-52411150D01*
X41016524Y-52373221D01*
X41051221Y-52338524D01*
X41089150Y-52307396D01*
X41129949Y-52280136D01*
X41173222Y-52257005D01*
X41218555Y-52238228D01*
X41265510Y-52223984D01*
X41313635Y-52214412D01*
X41362466Y-52209602D01*
X41387000Y-52209602D01*
X41387000Y-52209000D01*
X41887000Y-52209000D01*
X41887000Y-53709000D01*
G37*
G36*
X42687000Y-52209602D02*
G01*
X42711534Y-52209602D01*
X42760365Y-52214412D01*
X42808490Y-52223984D01*
X42855445Y-52238228D01*
X42900778Y-52257005D01*
X42944051Y-52280136D01*
X42984850Y-52307396D01*
X43022779Y-52338524D01*
X43057476Y-52373221D01*
X43088604Y-52411150D01*
X43115864Y-52451949D01*
X43138995Y-52495222D01*
X43157772Y-52540555D01*
X43172016Y-52587510D01*
X43181588Y-52635635D01*
X43186398Y-52684466D01*
X43186398Y-52709000D01*
X43187000Y-52709000D01*
X43187000Y-53209000D01*
X43186398Y-53209000D01*
X43186398Y-53233534D01*
X43181588Y-53282365D01*
X43172016Y-53330490D01*
X43157772Y-53377445D01*
X43138995Y-53422778D01*
X43115864Y-53466051D01*
X43088604Y-53506850D01*
X43057476Y-53544779D01*
X43022779Y-53579476D01*
X42984850Y-53610604D01*
X42944051Y-53637864D01*
X42900778Y-53660995D01*
X42855445Y-53679772D01*
X42808490Y-53694016D01*
X42760365Y-53703588D01*
X42711534Y-53708398D01*
X42687000Y-53708398D01*
X42687000Y-53709000D01*
X42187000Y-53709000D01*
X42187000Y-52209000D01*
X42687000Y-52209000D01*
X42687000Y-52209602D01*
G37*
%TD*%
D19*
%TO.C,J1*%
X60960000Y-42672000D03*
D20*
X59050000Y-51562000D03*
D21*
X62230000Y-45212000D03*
X63500000Y-42672000D03*
X64770000Y-45212000D03*
X66040000Y-42672000D03*
X67310000Y-45212000D03*
D20*
X69210000Y-51562000D03*
%TD*%
M02*
