%TF.GenerationSoftware,KiCad,Pcbnew,(5.1.9)-1*%
%TF.CreationDate,2021-10-26T11:54:14+02:00*%
%TF.ProjectId,DSMR-esp,44534d52-2d65-4737-902e-6b696361645f,rev?*%
%TF.SameCoordinates,Original*%
%TF.FileFunction,Copper,L2,Bot*%
%TF.FilePolarity,Positive*%
%FSLAX46Y46*%
G04 Gerber Fmt 4.6, Leading zero omitted, Abs format (unit mm)*
G04 Created by KiCad (PCBNEW (5.1.9)-1) date 2021-10-26 11:54:14*
%MOMM*%
%LPD*%
G01*
G04 APERTURE LIST*
%TA.AperFunction,ComponentPad*%
%ADD10O,1.700000X1.700000*%
%TD*%
%TA.AperFunction,ComponentPad*%
%ADD11R,1.700000X1.700000*%
%TD*%
%TA.AperFunction,ComponentPad*%
%ADD12C,0.800000*%
%TD*%
%TA.AperFunction,ComponentPad*%
%ADD13C,6.400000*%
%TD*%
%TA.AperFunction,ComponentPad*%
%ADD14O,2.000000X1.600000*%
%TD*%
%TA.AperFunction,ComponentPad*%
%ADD15R,2.000000X2.000000*%
%TD*%
%TA.AperFunction,ComponentPad*%
%ADD16R,1.520000X1.520000*%
%TD*%
%TA.AperFunction,ComponentPad*%
%ADD17C,1.520000*%
%TD*%
%TA.AperFunction,ViaPad*%
%ADD18C,0.800000*%
%TD*%
%TA.AperFunction,Conductor*%
%ADD19C,1.000000*%
%TD*%
%TA.AperFunction,Conductor*%
%ADD20C,0.254000*%
%TD*%
%TA.AperFunction,Conductor*%
%ADD21C,0.100000*%
%TD*%
G04 APERTURE END LIST*
D10*
%TO.P,JP2,2*%
%TO.N,5V_DSMR*%
X61976000Y-37592000D03*
D11*
%TO.P,JP2,1*%
%TO.N,Net-(D1-Pad2)*%
X61976000Y-35052000D03*
%TD*%
D12*
%TO.P,H2,1*%
%TO.N,N/C*%
X69261056Y-30814944D03*
X67564000Y-30112000D03*
X65866944Y-30814944D03*
X65164000Y-32512000D03*
X65866944Y-34209056D03*
X67564000Y-34912000D03*
X69261056Y-34209056D03*
X69964000Y-32512000D03*
D13*
X67564000Y-32512000D03*
%TD*%
D12*
%TO.P,H1,1*%
%TO.N,N/C*%
X37765056Y-35894944D03*
X36068000Y-35192000D03*
X34370944Y-35894944D03*
X33668000Y-37592000D03*
X34370944Y-39289056D03*
X36068000Y-39992000D03*
X37765056Y-39289056D03*
X38468000Y-37592000D03*
D13*
X36068000Y-37592000D03*
%TD*%
D14*
%TO.P,U1,16*%
%TO.N,N/C*%
X53361000Y-33702000D03*
%TO.P,U1,15*%
X53361000Y-36242000D03*
%TO.P,U1,14*%
X53361000Y-38782000D03*
%TO.P,U1,13*%
X53361000Y-41322000D03*
%TO.P,U1,12*%
X53361000Y-43862000D03*
%TO.P,U1,11*%
X53361000Y-46402000D03*
%TO.P,U1,10*%
%TO.N,GND*%
X53361000Y-48942000D03*
%TO.P,U1,9*%
%TO.N,+5V*%
X53361000Y-51482000D03*
%TO.P,U1,8*%
%TO.N,+3V3*%
X30501000Y-51482000D03*
%TO.P,U1,7*%
%TO.N,N/C*%
X30501000Y-48942000D03*
%TO.P,U1,6*%
%TO.N,RX*%
X30501000Y-46402000D03*
%TO.P,U1,5*%
%TO.N,N/C*%
X30501000Y-43862000D03*
%TO.P,U1,4*%
X30501000Y-41322000D03*
%TO.P,U1,3*%
X30501000Y-38782000D03*
D15*
%TO.P,U1,1*%
X30501000Y-33702000D03*
D14*
%TO.P,U1,2*%
X30501000Y-36242000D03*
%TD*%
D16*
%TO.P,J1,1*%
%TO.N,5V_DSMR*%
X60960000Y-42672000D03*
D17*
%TO.P,J1,2*%
%TO.N,DATA_REQ*%
X62230000Y-45212000D03*
%TO.P,J1,3*%
%TO.N,GND*%
X63500000Y-42672000D03*
%TO.P,J1,4*%
%TO.N,N/C*%
X64770000Y-45212000D03*
%TO.P,J1,5*%
%TO.N,DATA*%
X66040000Y-42672000D03*
%TO.P,J1,6*%
%TO.N,GND*%
X67310000Y-45212000D03*
%TD*%
D18*
%TO.N,GND*%
X39624000Y-44704000D03*
X33020000Y-46482000D03*
X39370000Y-53340000D03*
X32258000Y-53340000D03*
X51435000Y-50165000D03*
%TO.N,+3V3*%
X41148000Y-40894000D03*
%TO.N,+5V*%
X56387998Y-41402000D03*
%TD*%
D19*
%TO.N,+3V3*%
X30501000Y-51482000D02*
X41089000Y-40894000D01*
X41089000Y-40894000D02*
X41148000Y-40894000D01*
%TO.N,+5V*%
X56388000Y-50292000D02*
X56388000Y-41402002D01*
X55198000Y-51482000D02*
X56388000Y-50292000D01*
X56388000Y-41402002D02*
X56387998Y-41402000D01*
X53361000Y-51482000D02*
X55198000Y-51482000D01*
%TD*%
D20*
%TO.N,GND*%
X71476000Y-59284000D02*
X29616000Y-59284000D01*
X29616000Y-52742989D01*
X29749192Y-52814182D01*
X30019691Y-52896236D01*
X30230508Y-52917000D01*
X30771492Y-52917000D01*
X30982309Y-52896236D01*
X31252808Y-52814182D01*
X31502101Y-52680932D01*
X31720608Y-52501608D01*
X31899932Y-52283101D01*
X32033182Y-52033808D01*
X32115236Y-51763309D01*
X32142943Y-51482000D01*
X51719057Y-51482000D01*
X51746764Y-51763309D01*
X51828818Y-52033808D01*
X51962068Y-52283101D01*
X52141392Y-52501608D01*
X52359899Y-52680932D01*
X52609192Y-52814182D01*
X52879691Y-52896236D01*
X53090508Y-52917000D01*
X53631492Y-52917000D01*
X53842309Y-52896236D01*
X54112808Y-52814182D01*
X54362101Y-52680932D01*
X54440002Y-52617000D01*
X55142249Y-52617000D01*
X55198000Y-52622491D01*
X55253751Y-52617000D01*
X55253752Y-52617000D01*
X55420499Y-52600577D01*
X55634447Y-52535676D01*
X55831623Y-52430284D01*
X56004449Y-52288449D01*
X56039996Y-52245135D01*
X56790000Y-51495132D01*
X56790000Y-51784591D01*
X56876851Y-52221218D01*
X57047214Y-52632511D01*
X57294544Y-53002666D01*
X57609334Y-53317456D01*
X57979489Y-53564786D01*
X58390782Y-53735149D01*
X58827409Y-53822000D01*
X59272591Y-53822000D01*
X59709218Y-53735149D01*
X60120511Y-53564786D01*
X60490666Y-53317456D01*
X60805456Y-53002666D01*
X61052786Y-52632511D01*
X61223149Y-52221218D01*
X61310000Y-51784591D01*
X61310000Y-51339409D01*
X66950000Y-51339409D01*
X66950000Y-51784591D01*
X67036851Y-52221218D01*
X67207214Y-52632511D01*
X67454544Y-53002666D01*
X67769334Y-53317456D01*
X68139489Y-53564786D01*
X68550782Y-53735149D01*
X68987409Y-53822000D01*
X69432591Y-53822000D01*
X69869218Y-53735149D01*
X70280511Y-53564786D01*
X70650666Y-53317456D01*
X70965456Y-53002666D01*
X71212786Y-52632511D01*
X71383149Y-52221218D01*
X71470000Y-51784591D01*
X71470000Y-51339409D01*
X71383149Y-50902782D01*
X71212786Y-50491489D01*
X70965456Y-50121334D01*
X70650666Y-49806544D01*
X70280511Y-49559214D01*
X69869218Y-49388851D01*
X69432591Y-49302000D01*
X68987409Y-49302000D01*
X68550782Y-49388851D01*
X68139489Y-49559214D01*
X67769334Y-49806544D01*
X67454544Y-50121334D01*
X67207214Y-50491489D01*
X67036851Y-50902782D01*
X66950000Y-51339409D01*
X61310000Y-51339409D01*
X61223149Y-50902782D01*
X61052786Y-50491489D01*
X60805456Y-50121334D01*
X60490666Y-49806544D01*
X60120511Y-49559214D01*
X59709218Y-49388851D01*
X59272591Y-49302000D01*
X58827409Y-49302000D01*
X58390782Y-49388851D01*
X57979489Y-49559214D01*
X57609334Y-49806544D01*
X57523000Y-49892878D01*
X57523000Y-41912000D01*
X59561928Y-41912000D01*
X59561928Y-43432000D01*
X59574188Y-43556482D01*
X59610498Y-43676180D01*
X59669463Y-43786494D01*
X59748815Y-43883185D01*
X59845506Y-43962537D01*
X59955820Y-44021502D01*
X60075518Y-44057812D01*
X60200000Y-44070072D01*
X61428082Y-44070072D01*
X61340739Y-44128433D01*
X61146433Y-44322739D01*
X60993767Y-44551220D01*
X60888609Y-44805093D01*
X60835000Y-45074604D01*
X60835000Y-45349396D01*
X60888609Y-45618907D01*
X60993767Y-45872780D01*
X61146433Y-46101261D01*
X61340739Y-46295567D01*
X61569220Y-46448233D01*
X61823093Y-46553391D01*
X62092604Y-46607000D01*
X62367396Y-46607000D01*
X62636907Y-46553391D01*
X62890780Y-46448233D01*
X63119261Y-46295567D01*
X63313567Y-46101261D01*
X63466233Y-45872780D01*
X63500000Y-45791260D01*
X63533767Y-45872780D01*
X63686433Y-46101261D01*
X63880739Y-46295567D01*
X64109220Y-46448233D01*
X64363093Y-46553391D01*
X64632604Y-46607000D01*
X64907396Y-46607000D01*
X65176907Y-46553391D01*
X65430780Y-46448233D01*
X65659261Y-46295567D01*
X65778691Y-46176137D01*
X66525469Y-46176137D01*
X66592206Y-46416025D01*
X66840892Y-46532924D01*
X67107606Y-46599061D01*
X67382097Y-46611895D01*
X67653817Y-46570931D01*
X67912326Y-46477744D01*
X68027794Y-46416025D01*
X68094531Y-46176137D01*
X67310000Y-45391605D01*
X66525469Y-46176137D01*
X65778691Y-46176137D01*
X65853567Y-46101261D01*
X66006233Y-45872780D01*
X66037830Y-45796499D01*
X66044256Y-45814326D01*
X66105975Y-45929794D01*
X66345863Y-45996531D01*
X67130395Y-45212000D01*
X67489605Y-45212000D01*
X68274137Y-45996531D01*
X68514025Y-45929794D01*
X68630924Y-45681108D01*
X68697061Y-45414394D01*
X68709895Y-45139903D01*
X68668931Y-44868183D01*
X68575744Y-44609674D01*
X68514025Y-44494206D01*
X68274137Y-44427469D01*
X67489605Y-45212000D01*
X67130395Y-45212000D01*
X66345863Y-44427469D01*
X66105975Y-44494206D01*
X66040400Y-44633707D01*
X66006233Y-44551220D01*
X65853567Y-44322739D01*
X65778691Y-44247863D01*
X66525469Y-44247863D01*
X67310000Y-45032395D01*
X68094531Y-44247863D01*
X68027794Y-44007975D01*
X67779108Y-43891076D01*
X67512394Y-43824939D01*
X67237903Y-43812105D01*
X66966183Y-43853069D01*
X66707674Y-43946256D01*
X66592206Y-44007975D01*
X66525469Y-44247863D01*
X65778691Y-44247863D01*
X65659261Y-44128433D01*
X65430780Y-43975767D01*
X65176907Y-43870609D01*
X64907396Y-43817000D01*
X64632604Y-43817000D01*
X64363093Y-43870609D01*
X64109220Y-43975767D01*
X63880739Y-44128433D01*
X63686433Y-44322739D01*
X63533767Y-44551220D01*
X63500000Y-44632740D01*
X63466233Y-44551220D01*
X63313567Y-44322739D01*
X63119261Y-44128433D01*
X62890780Y-43975767D01*
X62636907Y-43870609D01*
X62367396Y-43817000D01*
X62225501Y-43817000D01*
X62250537Y-43786494D01*
X62309502Y-43676180D01*
X62321648Y-43636137D01*
X62715469Y-43636137D01*
X62782206Y-43876025D01*
X63030892Y-43992924D01*
X63297606Y-44059061D01*
X63572097Y-44071895D01*
X63843817Y-44030931D01*
X64102326Y-43937744D01*
X64217794Y-43876025D01*
X64284531Y-43636137D01*
X63500000Y-42851605D01*
X62715469Y-43636137D01*
X62321648Y-43636137D01*
X62345812Y-43556482D01*
X62358072Y-43432000D01*
X62358072Y-43407069D01*
X62535863Y-43456531D01*
X63320395Y-42672000D01*
X63679605Y-42672000D01*
X64464137Y-43456531D01*
X64704025Y-43389794D01*
X64769600Y-43250293D01*
X64803767Y-43332780D01*
X64956433Y-43561261D01*
X65150739Y-43755567D01*
X65379220Y-43908233D01*
X65633093Y-44013391D01*
X65902604Y-44067000D01*
X66177396Y-44067000D01*
X66446907Y-44013391D01*
X66700780Y-43908233D01*
X66929261Y-43755567D01*
X67123567Y-43561261D01*
X67276233Y-43332780D01*
X67381391Y-43078907D01*
X67435000Y-42809396D01*
X67435000Y-42534604D01*
X67381391Y-42265093D01*
X67276233Y-42011220D01*
X67123567Y-41782739D01*
X66929261Y-41588433D01*
X66700780Y-41435767D01*
X66446907Y-41330609D01*
X66177396Y-41277000D01*
X65902604Y-41277000D01*
X65633093Y-41330609D01*
X65379220Y-41435767D01*
X65150739Y-41588433D01*
X64956433Y-41782739D01*
X64803767Y-42011220D01*
X64772170Y-42087501D01*
X64765744Y-42069674D01*
X64704025Y-41954206D01*
X64464137Y-41887469D01*
X63679605Y-42672000D01*
X63320395Y-42672000D01*
X62535863Y-41887469D01*
X62358072Y-41936931D01*
X62358072Y-41912000D01*
X62345812Y-41787518D01*
X62321649Y-41707863D01*
X62715469Y-41707863D01*
X63500000Y-42492395D01*
X64284531Y-41707863D01*
X64217794Y-41467975D01*
X63969108Y-41351076D01*
X63702394Y-41284939D01*
X63427903Y-41272105D01*
X63156183Y-41313069D01*
X62897674Y-41406256D01*
X62782206Y-41467975D01*
X62715469Y-41707863D01*
X62321649Y-41707863D01*
X62309502Y-41667820D01*
X62250537Y-41557506D01*
X62171185Y-41460815D01*
X62074494Y-41381463D01*
X61964180Y-41322498D01*
X61844482Y-41286188D01*
X61720000Y-41273928D01*
X60200000Y-41273928D01*
X60075518Y-41286188D01*
X59955820Y-41322498D01*
X59845506Y-41381463D01*
X59748815Y-41460815D01*
X59669463Y-41557506D01*
X59610498Y-41667820D01*
X59574188Y-41787518D01*
X59561928Y-41912000D01*
X57523000Y-41912000D01*
X57523000Y-41457754D01*
X57528491Y-41402002D01*
X57523000Y-41346250D01*
X57506577Y-41179503D01*
X57441676Y-40965555D01*
X57336284Y-40768379D01*
X57194449Y-40595553D01*
X57021623Y-40453718D01*
X56859384Y-40367000D01*
X56824444Y-40348324D01*
X56610496Y-40283423D01*
X56387998Y-40261509D01*
X56165500Y-40283423D01*
X55951552Y-40348324D01*
X55754376Y-40453717D01*
X55581550Y-40595552D01*
X55439715Y-40768378D01*
X55334322Y-40965554D01*
X55269421Y-41179502D01*
X55247507Y-41402000D01*
X55253001Y-41457782D01*
X55253000Y-49821868D01*
X54727869Y-50347000D01*
X54440002Y-50347000D01*
X54362101Y-50283068D01*
X54232655Y-50213878D01*
X54250227Y-50206430D01*
X54483662Y-50047673D01*
X54681639Y-49846425D01*
X54836551Y-49610421D01*
X54942444Y-49348730D01*
X54952904Y-49291039D01*
X54830915Y-49069000D01*
X53488000Y-49069000D01*
X53488000Y-49089000D01*
X53234000Y-49089000D01*
X53234000Y-49069000D01*
X51891085Y-49069000D01*
X51769096Y-49291039D01*
X51779556Y-49348730D01*
X51885449Y-49610421D01*
X52040361Y-49846425D01*
X52238338Y-50047673D01*
X52471773Y-50206430D01*
X52489345Y-50213878D01*
X52359899Y-50283068D01*
X52141392Y-50462392D01*
X51962068Y-50680899D01*
X51828818Y-50930192D01*
X51746764Y-51200691D01*
X51719057Y-51482000D01*
X32142943Y-51482000D01*
X32139642Y-51448489D01*
X41704769Y-41883363D01*
X41781623Y-41842284D01*
X41954449Y-41700449D01*
X42096284Y-41527623D01*
X42201676Y-41330447D01*
X42266577Y-41116499D01*
X42288491Y-40894000D01*
X42266577Y-40671501D01*
X42201676Y-40457553D01*
X42096284Y-40260377D01*
X41954449Y-40087551D01*
X41781623Y-39945716D01*
X41584447Y-39840324D01*
X41370499Y-39775423D01*
X41203752Y-39759000D01*
X41144743Y-39759000D01*
X41088999Y-39753510D01*
X41033255Y-39759000D01*
X41033248Y-39759000D01*
X40887493Y-39773356D01*
X40866500Y-39775423D01*
X40816705Y-39790529D01*
X40652553Y-39840324D01*
X40455377Y-39945716D01*
X40282551Y-40087551D01*
X40247009Y-40130859D01*
X32017331Y-48360537D01*
X31899932Y-48140899D01*
X31720608Y-47922392D01*
X31502101Y-47743068D01*
X31369142Y-47672000D01*
X31502101Y-47600932D01*
X31720608Y-47421608D01*
X31899932Y-47203101D01*
X32033182Y-46953808D01*
X32115236Y-46683309D01*
X32142943Y-46402000D01*
X32115236Y-46120691D01*
X32033182Y-45850192D01*
X31899932Y-45600899D01*
X31720608Y-45382392D01*
X31502101Y-45203068D01*
X31369142Y-45132000D01*
X31502101Y-45060932D01*
X31720608Y-44881608D01*
X31899932Y-44663101D01*
X32033182Y-44413808D01*
X32115236Y-44143309D01*
X32142943Y-43862000D01*
X32115236Y-43580691D01*
X32033182Y-43310192D01*
X31899932Y-43060899D01*
X31720608Y-42842392D01*
X31502101Y-42663068D01*
X31369142Y-42592000D01*
X31502101Y-42520932D01*
X31720608Y-42341608D01*
X31899932Y-42123101D01*
X32033182Y-41873808D01*
X32115236Y-41603309D01*
X32142943Y-41322000D01*
X32115236Y-41040691D01*
X32033182Y-40770192D01*
X31899932Y-40520899D01*
X31720608Y-40302392D01*
X31502101Y-40123068D01*
X31369142Y-40052000D01*
X31502101Y-39980932D01*
X31720608Y-39801608D01*
X31899932Y-39583101D01*
X32033182Y-39333808D01*
X32115236Y-39063309D01*
X32142943Y-38782000D01*
X32115236Y-38500691D01*
X32033182Y-38230192D01*
X31899932Y-37980899D01*
X31720608Y-37762392D01*
X31502101Y-37583068D01*
X31369142Y-37512000D01*
X31502101Y-37440932D01*
X31720608Y-37261608D01*
X31759444Y-37214285D01*
X32233000Y-37214285D01*
X32233000Y-37969715D01*
X32380377Y-38710628D01*
X32669467Y-39408554D01*
X33089161Y-40036670D01*
X33623330Y-40570839D01*
X34251446Y-40990533D01*
X34949372Y-41279623D01*
X35690285Y-41427000D01*
X36445715Y-41427000D01*
X37186628Y-41279623D01*
X37884554Y-40990533D01*
X38512670Y-40570839D01*
X39046839Y-40036670D01*
X39466533Y-39408554D01*
X39755623Y-38710628D01*
X39903000Y-37969715D01*
X39903000Y-37214285D01*
X39755623Y-36473372D01*
X39466533Y-35775446D01*
X39046839Y-35147330D01*
X38512670Y-34613161D01*
X37884554Y-34193467D01*
X37186628Y-33904377D01*
X36445715Y-33757000D01*
X35690285Y-33757000D01*
X34949372Y-33904377D01*
X34251446Y-34193467D01*
X33623330Y-34613161D01*
X33089161Y-35147330D01*
X32669467Y-35775446D01*
X32380377Y-36473372D01*
X32233000Y-37214285D01*
X31759444Y-37214285D01*
X31899932Y-37043101D01*
X32033182Y-36793808D01*
X32115236Y-36523309D01*
X32142943Y-36242000D01*
X32115236Y-35960691D01*
X32033182Y-35690192D01*
X31899932Y-35440899D01*
X31767524Y-35279559D01*
X31855494Y-35232537D01*
X31952185Y-35153185D01*
X32031537Y-35056494D01*
X32090502Y-34946180D01*
X32126812Y-34826482D01*
X32139072Y-34702000D01*
X32139072Y-32702000D01*
X32132867Y-32639000D01*
X52194265Y-32639000D01*
X52141392Y-32682392D01*
X51962068Y-32900899D01*
X51828818Y-33150192D01*
X51746764Y-33420691D01*
X51719057Y-33702000D01*
X51746764Y-33983309D01*
X51828818Y-34253808D01*
X51962068Y-34503101D01*
X52141392Y-34721608D01*
X52359899Y-34900932D01*
X52492858Y-34972000D01*
X52359899Y-35043068D01*
X52141392Y-35222392D01*
X51962068Y-35440899D01*
X51828818Y-35690192D01*
X51746764Y-35960691D01*
X51719057Y-36242000D01*
X51746764Y-36523309D01*
X51828818Y-36793808D01*
X51962068Y-37043101D01*
X52141392Y-37261608D01*
X52359899Y-37440932D01*
X52492858Y-37512000D01*
X52359899Y-37583068D01*
X52141392Y-37762392D01*
X51962068Y-37980899D01*
X51828818Y-38230192D01*
X51746764Y-38500691D01*
X51719057Y-38782000D01*
X51746764Y-39063309D01*
X51828818Y-39333808D01*
X51962068Y-39583101D01*
X52141392Y-39801608D01*
X52359899Y-39980932D01*
X52492858Y-40052000D01*
X52359899Y-40123068D01*
X52141392Y-40302392D01*
X51962068Y-40520899D01*
X51828818Y-40770192D01*
X51746764Y-41040691D01*
X51719057Y-41322000D01*
X51746764Y-41603309D01*
X51828818Y-41873808D01*
X51962068Y-42123101D01*
X52141392Y-42341608D01*
X52359899Y-42520932D01*
X52492858Y-42592000D01*
X52359899Y-42663068D01*
X52141392Y-42842392D01*
X51962068Y-43060899D01*
X51828818Y-43310192D01*
X51746764Y-43580691D01*
X51719057Y-43862000D01*
X51746764Y-44143309D01*
X51828818Y-44413808D01*
X51962068Y-44663101D01*
X52141392Y-44881608D01*
X52359899Y-45060932D01*
X52492858Y-45132000D01*
X52359899Y-45203068D01*
X52141392Y-45382392D01*
X51962068Y-45600899D01*
X51828818Y-45850192D01*
X51746764Y-46120691D01*
X51719057Y-46402000D01*
X51746764Y-46683309D01*
X51828818Y-46953808D01*
X51962068Y-47203101D01*
X52141392Y-47421608D01*
X52359899Y-47600932D01*
X52489345Y-47670122D01*
X52471773Y-47677570D01*
X52238338Y-47836327D01*
X52040361Y-48037575D01*
X51885449Y-48273579D01*
X51779556Y-48535270D01*
X51769096Y-48592961D01*
X51891085Y-48815000D01*
X53234000Y-48815000D01*
X53234000Y-48795000D01*
X53488000Y-48795000D01*
X53488000Y-48815000D01*
X54830915Y-48815000D01*
X54952904Y-48592961D01*
X54942444Y-48535270D01*
X54836551Y-48273579D01*
X54681639Y-48037575D01*
X54483662Y-47836327D01*
X54250227Y-47677570D01*
X54232655Y-47670122D01*
X54362101Y-47600932D01*
X54580608Y-47421608D01*
X54759932Y-47203101D01*
X54893182Y-46953808D01*
X54975236Y-46683309D01*
X55002943Y-46402000D01*
X54975236Y-46120691D01*
X54893182Y-45850192D01*
X54759932Y-45600899D01*
X54580608Y-45382392D01*
X54362101Y-45203068D01*
X54229142Y-45132000D01*
X54362101Y-45060932D01*
X54580608Y-44881608D01*
X54759932Y-44663101D01*
X54893182Y-44413808D01*
X54975236Y-44143309D01*
X55002943Y-43862000D01*
X54975236Y-43580691D01*
X54893182Y-43310192D01*
X54759932Y-43060899D01*
X54580608Y-42842392D01*
X54362101Y-42663068D01*
X54229142Y-42592000D01*
X54362101Y-42520932D01*
X54580608Y-42341608D01*
X54759932Y-42123101D01*
X54893182Y-41873808D01*
X54975236Y-41603309D01*
X55002943Y-41322000D01*
X54975236Y-41040691D01*
X54893182Y-40770192D01*
X54759932Y-40520899D01*
X54580608Y-40302392D01*
X54362101Y-40123068D01*
X54229142Y-40052000D01*
X54362101Y-39980932D01*
X54580608Y-39801608D01*
X54759932Y-39583101D01*
X54893182Y-39333808D01*
X54975236Y-39063309D01*
X55002943Y-38782000D01*
X54975236Y-38500691D01*
X54893182Y-38230192D01*
X54759932Y-37980899D01*
X54580608Y-37762392D01*
X54362101Y-37583068D01*
X54229142Y-37512000D01*
X54362101Y-37440932D01*
X54580608Y-37261608D01*
X54759932Y-37043101D01*
X54893182Y-36793808D01*
X54975236Y-36523309D01*
X55002943Y-36242000D01*
X54975236Y-35960691D01*
X54893182Y-35690192D01*
X54759932Y-35440899D01*
X54580608Y-35222392D01*
X54362101Y-35043068D01*
X54229142Y-34972000D01*
X54362101Y-34900932D01*
X54580608Y-34721608D01*
X54759932Y-34503101D01*
X54893182Y-34253808D01*
X54908897Y-34202000D01*
X60487928Y-34202000D01*
X60487928Y-35902000D01*
X60500188Y-36026482D01*
X60536498Y-36146180D01*
X60595463Y-36256494D01*
X60674815Y-36353185D01*
X60771506Y-36432537D01*
X60881820Y-36491502D01*
X60954380Y-36513513D01*
X60822525Y-36645368D01*
X60660010Y-36888589D01*
X60548068Y-37158842D01*
X60491000Y-37445740D01*
X60491000Y-37738260D01*
X60548068Y-38025158D01*
X60660010Y-38295411D01*
X60822525Y-38538632D01*
X61029368Y-38745475D01*
X61272589Y-38907990D01*
X61542842Y-39019932D01*
X61829740Y-39077000D01*
X62122260Y-39077000D01*
X62409158Y-39019932D01*
X62679411Y-38907990D01*
X62922632Y-38745475D01*
X63129475Y-38538632D01*
X63291990Y-38295411D01*
X63403932Y-38025158D01*
X63461000Y-37738260D01*
X63461000Y-37445740D01*
X63403932Y-37158842D01*
X63291990Y-36888589D01*
X63129475Y-36645368D01*
X62997620Y-36513513D01*
X63070180Y-36491502D01*
X63180494Y-36432537D01*
X63277185Y-36353185D01*
X63356537Y-36256494D01*
X63415502Y-36146180D01*
X63451812Y-36026482D01*
X63464072Y-35902000D01*
X63464072Y-34202000D01*
X63451812Y-34077518D01*
X63415502Y-33957820D01*
X63356537Y-33847506D01*
X63277185Y-33750815D01*
X63180494Y-33671463D01*
X63070180Y-33612498D01*
X62950482Y-33576188D01*
X62826000Y-33563928D01*
X61126000Y-33563928D01*
X61001518Y-33576188D01*
X60881820Y-33612498D01*
X60771506Y-33671463D01*
X60674815Y-33750815D01*
X60595463Y-33847506D01*
X60536498Y-33957820D01*
X60500188Y-34077518D01*
X60487928Y-34202000D01*
X54908897Y-34202000D01*
X54975236Y-33983309D01*
X55002943Y-33702000D01*
X54975236Y-33420691D01*
X54893182Y-33150192D01*
X54759932Y-32900899D01*
X54580608Y-32682392D01*
X54527735Y-32639000D01*
X55118000Y-32639000D01*
X55142776Y-32636560D01*
X55166601Y-32629333D01*
X55188557Y-32617597D01*
X55207803Y-32601803D01*
X55223597Y-32582557D01*
X55235333Y-32560601D01*
X55242560Y-32536776D01*
X55245000Y-32512000D01*
X55245000Y-32134285D01*
X63729000Y-32134285D01*
X63729000Y-32889715D01*
X63876377Y-33630628D01*
X64165467Y-34328554D01*
X64585161Y-34956670D01*
X65119330Y-35490839D01*
X65747446Y-35910533D01*
X66445372Y-36199623D01*
X67186285Y-36347000D01*
X67941715Y-36347000D01*
X68682628Y-36199623D01*
X69380554Y-35910533D01*
X70008670Y-35490839D01*
X70542839Y-34956670D01*
X70962533Y-34328554D01*
X71251623Y-33630628D01*
X71399000Y-32889715D01*
X71399000Y-32134285D01*
X71251623Y-31393372D01*
X70962533Y-30695446D01*
X70542839Y-30067330D01*
X70008670Y-29533161D01*
X69380554Y-29113467D01*
X68682628Y-28824377D01*
X67941715Y-28677000D01*
X67186285Y-28677000D01*
X66445372Y-28824377D01*
X65747446Y-29113467D01*
X65119330Y-29533161D01*
X64585161Y-30067330D01*
X64165467Y-30695446D01*
X63876377Y-31393372D01*
X63729000Y-32134285D01*
X55245000Y-32134285D01*
X55245000Y-28600000D01*
X71476001Y-28600000D01*
X71476000Y-59284000D01*
%TA.AperFunction,Conductor*%
D21*
G36*
X71476000Y-59284000D02*
G01*
X29616000Y-59284000D01*
X29616000Y-52742989D01*
X29749192Y-52814182D01*
X30019691Y-52896236D01*
X30230508Y-52917000D01*
X30771492Y-52917000D01*
X30982309Y-52896236D01*
X31252808Y-52814182D01*
X31502101Y-52680932D01*
X31720608Y-52501608D01*
X31899932Y-52283101D01*
X32033182Y-52033808D01*
X32115236Y-51763309D01*
X32142943Y-51482000D01*
X51719057Y-51482000D01*
X51746764Y-51763309D01*
X51828818Y-52033808D01*
X51962068Y-52283101D01*
X52141392Y-52501608D01*
X52359899Y-52680932D01*
X52609192Y-52814182D01*
X52879691Y-52896236D01*
X53090508Y-52917000D01*
X53631492Y-52917000D01*
X53842309Y-52896236D01*
X54112808Y-52814182D01*
X54362101Y-52680932D01*
X54440002Y-52617000D01*
X55142249Y-52617000D01*
X55198000Y-52622491D01*
X55253751Y-52617000D01*
X55253752Y-52617000D01*
X55420499Y-52600577D01*
X55634447Y-52535676D01*
X55831623Y-52430284D01*
X56004449Y-52288449D01*
X56039996Y-52245135D01*
X56790000Y-51495132D01*
X56790000Y-51784591D01*
X56876851Y-52221218D01*
X57047214Y-52632511D01*
X57294544Y-53002666D01*
X57609334Y-53317456D01*
X57979489Y-53564786D01*
X58390782Y-53735149D01*
X58827409Y-53822000D01*
X59272591Y-53822000D01*
X59709218Y-53735149D01*
X60120511Y-53564786D01*
X60490666Y-53317456D01*
X60805456Y-53002666D01*
X61052786Y-52632511D01*
X61223149Y-52221218D01*
X61310000Y-51784591D01*
X61310000Y-51339409D01*
X66950000Y-51339409D01*
X66950000Y-51784591D01*
X67036851Y-52221218D01*
X67207214Y-52632511D01*
X67454544Y-53002666D01*
X67769334Y-53317456D01*
X68139489Y-53564786D01*
X68550782Y-53735149D01*
X68987409Y-53822000D01*
X69432591Y-53822000D01*
X69869218Y-53735149D01*
X70280511Y-53564786D01*
X70650666Y-53317456D01*
X70965456Y-53002666D01*
X71212786Y-52632511D01*
X71383149Y-52221218D01*
X71470000Y-51784591D01*
X71470000Y-51339409D01*
X71383149Y-50902782D01*
X71212786Y-50491489D01*
X70965456Y-50121334D01*
X70650666Y-49806544D01*
X70280511Y-49559214D01*
X69869218Y-49388851D01*
X69432591Y-49302000D01*
X68987409Y-49302000D01*
X68550782Y-49388851D01*
X68139489Y-49559214D01*
X67769334Y-49806544D01*
X67454544Y-50121334D01*
X67207214Y-50491489D01*
X67036851Y-50902782D01*
X66950000Y-51339409D01*
X61310000Y-51339409D01*
X61223149Y-50902782D01*
X61052786Y-50491489D01*
X60805456Y-50121334D01*
X60490666Y-49806544D01*
X60120511Y-49559214D01*
X59709218Y-49388851D01*
X59272591Y-49302000D01*
X58827409Y-49302000D01*
X58390782Y-49388851D01*
X57979489Y-49559214D01*
X57609334Y-49806544D01*
X57523000Y-49892878D01*
X57523000Y-41912000D01*
X59561928Y-41912000D01*
X59561928Y-43432000D01*
X59574188Y-43556482D01*
X59610498Y-43676180D01*
X59669463Y-43786494D01*
X59748815Y-43883185D01*
X59845506Y-43962537D01*
X59955820Y-44021502D01*
X60075518Y-44057812D01*
X60200000Y-44070072D01*
X61428082Y-44070072D01*
X61340739Y-44128433D01*
X61146433Y-44322739D01*
X60993767Y-44551220D01*
X60888609Y-44805093D01*
X60835000Y-45074604D01*
X60835000Y-45349396D01*
X60888609Y-45618907D01*
X60993767Y-45872780D01*
X61146433Y-46101261D01*
X61340739Y-46295567D01*
X61569220Y-46448233D01*
X61823093Y-46553391D01*
X62092604Y-46607000D01*
X62367396Y-46607000D01*
X62636907Y-46553391D01*
X62890780Y-46448233D01*
X63119261Y-46295567D01*
X63313567Y-46101261D01*
X63466233Y-45872780D01*
X63500000Y-45791260D01*
X63533767Y-45872780D01*
X63686433Y-46101261D01*
X63880739Y-46295567D01*
X64109220Y-46448233D01*
X64363093Y-46553391D01*
X64632604Y-46607000D01*
X64907396Y-46607000D01*
X65176907Y-46553391D01*
X65430780Y-46448233D01*
X65659261Y-46295567D01*
X65778691Y-46176137D01*
X66525469Y-46176137D01*
X66592206Y-46416025D01*
X66840892Y-46532924D01*
X67107606Y-46599061D01*
X67382097Y-46611895D01*
X67653817Y-46570931D01*
X67912326Y-46477744D01*
X68027794Y-46416025D01*
X68094531Y-46176137D01*
X67310000Y-45391605D01*
X66525469Y-46176137D01*
X65778691Y-46176137D01*
X65853567Y-46101261D01*
X66006233Y-45872780D01*
X66037830Y-45796499D01*
X66044256Y-45814326D01*
X66105975Y-45929794D01*
X66345863Y-45996531D01*
X67130395Y-45212000D01*
X67489605Y-45212000D01*
X68274137Y-45996531D01*
X68514025Y-45929794D01*
X68630924Y-45681108D01*
X68697061Y-45414394D01*
X68709895Y-45139903D01*
X68668931Y-44868183D01*
X68575744Y-44609674D01*
X68514025Y-44494206D01*
X68274137Y-44427469D01*
X67489605Y-45212000D01*
X67130395Y-45212000D01*
X66345863Y-44427469D01*
X66105975Y-44494206D01*
X66040400Y-44633707D01*
X66006233Y-44551220D01*
X65853567Y-44322739D01*
X65778691Y-44247863D01*
X66525469Y-44247863D01*
X67310000Y-45032395D01*
X68094531Y-44247863D01*
X68027794Y-44007975D01*
X67779108Y-43891076D01*
X67512394Y-43824939D01*
X67237903Y-43812105D01*
X66966183Y-43853069D01*
X66707674Y-43946256D01*
X66592206Y-44007975D01*
X66525469Y-44247863D01*
X65778691Y-44247863D01*
X65659261Y-44128433D01*
X65430780Y-43975767D01*
X65176907Y-43870609D01*
X64907396Y-43817000D01*
X64632604Y-43817000D01*
X64363093Y-43870609D01*
X64109220Y-43975767D01*
X63880739Y-44128433D01*
X63686433Y-44322739D01*
X63533767Y-44551220D01*
X63500000Y-44632740D01*
X63466233Y-44551220D01*
X63313567Y-44322739D01*
X63119261Y-44128433D01*
X62890780Y-43975767D01*
X62636907Y-43870609D01*
X62367396Y-43817000D01*
X62225501Y-43817000D01*
X62250537Y-43786494D01*
X62309502Y-43676180D01*
X62321648Y-43636137D01*
X62715469Y-43636137D01*
X62782206Y-43876025D01*
X63030892Y-43992924D01*
X63297606Y-44059061D01*
X63572097Y-44071895D01*
X63843817Y-44030931D01*
X64102326Y-43937744D01*
X64217794Y-43876025D01*
X64284531Y-43636137D01*
X63500000Y-42851605D01*
X62715469Y-43636137D01*
X62321648Y-43636137D01*
X62345812Y-43556482D01*
X62358072Y-43432000D01*
X62358072Y-43407069D01*
X62535863Y-43456531D01*
X63320395Y-42672000D01*
X63679605Y-42672000D01*
X64464137Y-43456531D01*
X64704025Y-43389794D01*
X64769600Y-43250293D01*
X64803767Y-43332780D01*
X64956433Y-43561261D01*
X65150739Y-43755567D01*
X65379220Y-43908233D01*
X65633093Y-44013391D01*
X65902604Y-44067000D01*
X66177396Y-44067000D01*
X66446907Y-44013391D01*
X66700780Y-43908233D01*
X66929261Y-43755567D01*
X67123567Y-43561261D01*
X67276233Y-43332780D01*
X67381391Y-43078907D01*
X67435000Y-42809396D01*
X67435000Y-42534604D01*
X67381391Y-42265093D01*
X67276233Y-42011220D01*
X67123567Y-41782739D01*
X66929261Y-41588433D01*
X66700780Y-41435767D01*
X66446907Y-41330609D01*
X66177396Y-41277000D01*
X65902604Y-41277000D01*
X65633093Y-41330609D01*
X65379220Y-41435767D01*
X65150739Y-41588433D01*
X64956433Y-41782739D01*
X64803767Y-42011220D01*
X64772170Y-42087501D01*
X64765744Y-42069674D01*
X64704025Y-41954206D01*
X64464137Y-41887469D01*
X63679605Y-42672000D01*
X63320395Y-42672000D01*
X62535863Y-41887469D01*
X62358072Y-41936931D01*
X62358072Y-41912000D01*
X62345812Y-41787518D01*
X62321649Y-41707863D01*
X62715469Y-41707863D01*
X63500000Y-42492395D01*
X64284531Y-41707863D01*
X64217794Y-41467975D01*
X63969108Y-41351076D01*
X63702394Y-41284939D01*
X63427903Y-41272105D01*
X63156183Y-41313069D01*
X62897674Y-41406256D01*
X62782206Y-41467975D01*
X62715469Y-41707863D01*
X62321649Y-41707863D01*
X62309502Y-41667820D01*
X62250537Y-41557506D01*
X62171185Y-41460815D01*
X62074494Y-41381463D01*
X61964180Y-41322498D01*
X61844482Y-41286188D01*
X61720000Y-41273928D01*
X60200000Y-41273928D01*
X60075518Y-41286188D01*
X59955820Y-41322498D01*
X59845506Y-41381463D01*
X59748815Y-41460815D01*
X59669463Y-41557506D01*
X59610498Y-41667820D01*
X59574188Y-41787518D01*
X59561928Y-41912000D01*
X57523000Y-41912000D01*
X57523000Y-41457754D01*
X57528491Y-41402002D01*
X57523000Y-41346250D01*
X57506577Y-41179503D01*
X57441676Y-40965555D01*
X57336284Y-40768379D01*
X57194449Y-40595553D01*
X57021623Y-40453718D01*
X56859384Y-40367000D01*
X56824444Y-40348324D01*
X56610496Y-40283423D01*
X56387998Y-40261509D01*
X56165500Y-40283423D01*
X55951552Y-40348324D01*
X55754376Y-40453717D01*
X55581550Y-40595552D01*
X55439715Y-40768378D01*
X55334322Y-40965554D01*
X55269421Y-41179502D01*
X55247507Y-41402000D01*
X55253001Y-41457782D01*
X55253000Y-49821868D01*
X54727869Y-50347000D01*
X54440002Y-50347000D01*
X54362101Y-50283068D01*
X54232655Y-50213878D01*
X54250227Y-50206430D01*
X54483662Y-50047673D01*
X54681639Y-49846425D01*
X54836551Y-49610421D01*
X54942444Y-49348730D01*
X54952904Y-49291039D01*
X54830915Y-49069000D01*
X53488000Y-49069000D01*
X53488000Y-49089000D01*
X53234000Y-49089000D01*
X53234000Y-49069000D01*
X51891085Y-49069000D01*
X51769096Y-49291039D01*
X51779556Y-49348730D01*
X51885449Y-49610421D01*
X52040361Y-49846425D01*
X52238338Y-50047673D01*
X52471773Y-50206430D01*
X52489345Y-50213878D01*
X52359899Y-50283068D01*
X52141392Y-50462392D01*
X51962068Y-50680899D01*
X51828818Y-50930192D01*
X51746764Y-51200691D01*
X51719057Y-51482000D01*
X32142943Y-51482000D01*
X32139642Y-51448489D01*
X41704769Y-41883363D01*
X41781623Y-41842284D01*
X41954449Y-41700449D01*
X42096284Y-41527623D01*
X42201676Y-41330447D01*
X42266577Y-41116499D01*
X42288491Y-40894000D01*
X42266577Y-40671501D01*
X42201676Y-40457553D01*
X42096284Y-40260377D01*
X41954449Y-40087551D01*
X41781623Y-39945716D01*
X41584447Y-39840324D01*
X41370499Y-39775423D01*
X41203752Y-39759000D01*
X41144743Y-39759000D01*
X41088999Y-39753510D01*
X41033255Y-39759000D01*
X41033248Y-39759000D01*
X40887493Y-39773356D01*
X40866500Y-39775423D01*
X40816705Y-39790529D01*
X40652553Y-39840324D01*
X40455377Y-39945716D01*
X40282551Y-40087551D01*
X40247009Y-40130859D01*
X32017331Y-48360537D01*
X31899932Y-48140899D01*
X31720608Y-47922392D01*
X31502101Y-47743068D01*
X31369142Y-47672000D01*
X31502101Y-47600932D01*
X31720608Y-47421608D01*
X31899932Y-47203101D01*
X32033182Y-46953808D01*
X32115236Y-46683309D01*
X32142943Y-46402000D01*
X32115236Y-46120691D01*
X32033182Y-45850192D01*
X31899932Y-45600899D01*
X31720608Y-45382392D01*
X31502101Y-45203068D01*
X31369142Y-45132000D01*
X31502101Y-45060932D01*
X31720608Y-44881608D01*
X31899932Y-44663101D01*
X32033182Y-44413808D01*
X32115236Y-44143309D01*
X32142943Y-43862000D01*
X32115236Y-43580691D01*
X32033182Y-43310192D01*
X31899932Y-43060899D01*
X31720608Y-42842392D01*
X31502101Y-42663068D01*
X31369142Y-42592000D01*
X31502101Y-42520932D01*
X31720608Y-42341608D01*
X31899932Y-42123101D01*
X32033182Y-41873808D01*
X32115236Y-41603309D01*
X32142943Y-41322000D01*
X32115236Y-41040691D01*
X32033182Y-40770192D01*
X31899932Y-40520899D01*
X31720608Y-40302392D01*
X31502101Y-40123068D01*
X31369142Y-40052000D01*
X31502101Y-39980932D01*
X31720608Y-39801608D01*
X31899932Y-39583101D01*
X32033182Y-39333808D01*
X32115236Y-39063309D01*
X32142943Y-38782000D01*
X32115236Y-38500691D01*
X32033182Y-38230192D01*
X31899932Y-37980899D01*
X31720608Y-37762392D01*
X31502101Y-37583068D01*
X31369142Y-37512000D01*
X31502101Y-37440932D01*
X31720608Y-37261608D01*
X31759444Y-37214285D01*
X32233000Y-37214285D01*
X32233000Y-37969715D01*
X32380377Y-38710628D01*
X32669467Y-39408554D01*
X33089161Y-40036670D01*
X33623330Y-40570839D01*
X34251446Y-40990533D01*
X34949372Y-41279623D01*
X35690285Y-41427000D01*
X36445715Y-41427000D01*
X37186628Y-41279623D01*
X37884554Y-40990533D01*
X38512670Y-40570839D01*
X39046839Y-40036670D01*
X39466533Y-39408554D01*
X39755623Y-38710628D01*
X39903000Y-37969715D01*
X39903000Y-37214285D01*
X39755623Y-36473372D01*
X39466533Y-35775446D01*
X39046839Y-35147330D01*
X38512670Y-34613161D01*
X37884554Y-34193467D01*
X37186628Y-33904377D01*
X36445715Y-33757000D01*
X35690285Y-33757000D01*
X34949372Y-33904377D01*
X34251446Y-34193467D01*
X33623330Y-34613161D01*
X33089161Y-35147330D01*
X32669467Y-35775446D01*
X32380377Y-36473372D01*
X32233000Y-37214285D01*
X31759444Y-37214285D01*
X31899932Y-37043101D01*
X32033182Y-36793808D01*
X32115236Y-36523309D01*
X32142943Y-36242000D01*
X32115236Y-35960691D01*
X32033182Y-35690192D01*
X31899932Y-35440899D01*
X31767524Y-35279559D01*
X31855494Y-35232537D01*
X31952185Y-35153185D01*
X32031537Y-35056494D01*
X32090502Y-34946180D01*
X32126812Y-34826482D01*
X32139072Y-34702000D01*
X32139072Y-32702000D01*
X32132867Y-32639000D01*
X52194265Y-32639000D01*
X52141392Y-32682392D01*
X51962068Y-32900899D01*
X51828818Y-33150192D01*
X51746764Y-33420691D01*
X51719057Y-33702000D01*
X51746764Y-33983309D01*
X51828818Y-34253808D01*
X51962068Y-34503101D01*
X52141392Y-34721608D01*
X52359899Y-34900932D01*
X52492858Y-34972000D01*
X52359899Y-35043068D01*
X52141392Y-35222392D01*
X51962068Y-35440899D01*
X51828818Y-35690192D01*
X51746764Y-35960691D01*
X51719057Y-36242000D01*
X51746764Y-36523309D01*
X51828818Y-36793808D01*
X51962068Y-37043101D01*
X52141392Y-37261608D01*
X52359899Y-37440932D01*
X52492858Y-37512000D01*
X52359899Y-37583068D01*
X52141392Y-37762392D01*
X51962068Y-37980899D01*
X51828818Y-38230192D01*
X51746764Y-38500691D01*
X51719057Y-38782000D01*
X51746764Y-39063309D01*
X51828818Y-39333808D01*
X51962068Y-39583101D01*
X52141392Y-39801608D01*
X52359899Y-39980932D01*
X52492858Y-40052000D01*
X52359899Y-40123068D01*
X52141392Y-40302392D01*
X51962068Y-40520899D01*
X51828818Y-40770192D01*
X51746764Y-41040691D01*
X51719057Y-41322000D01*
X51746764Y-41603309D01*
X51828818Y-41873808D01*
X51962068Y-42123101D01*
X52141392Y-42341608D01*
X52359899Y-42520932D01*
X52492858Y-42592000D01*
X52359899Y-42663068D01*
X52141392Y-42842392D01*
X51962068Y-43060899D01*
X51828818Y-43310192D01*
X51746764Y-43580691D01*
X51719057Y-43862000D01*
X51746764Y-44143309D01*
X51828818Y-44413808D01*
X51962068Y-44663101D01*
X52141392Y-44881608D01*
X52359899Y-45060932D01*
X52492858Y-45132000D01*
X52359899Y-45203068D01*
X52141392Y-45382392D01*
X51962068Y-45600899D01*
X51828818Y-45850192D01*
X51746764Y-46120691D01*
X51719057Y-46402000D01*
X51746764Y-46683309D01*
X51828818Y-46953808D01*
X51962068Y-47203101D01*
X52141392Y-47421608D01*
X52359899Y-47600932D01*
X52489345Y-47670122D01*
X52471773Y-47677570D01*
X52238338Y-47836327D01*
X52040361Y-48037575D01*
X51885449Y-48273579D01*
X51779556Y-48535270D01*
X51769096Y-48592961D01*
X51891085Y-48815000D01*
X53234000Y-48815000D01*
X53234000Y-48795000D01*
X53488000Y-48795000D01*
X53488000Y-48815000D01*
X54830915Y-48815000D01*
X54952904Y-48592961D01*
X54942444Y-48535270D01*
X54836551Y-48273579D01*
X54681639Y-48037575D01*
X54483662Y-47836327D01*
X54250227Y-47677570D01*
X54232655Y-47670122D01*
X54362101Y-47600932D01*
X54580608Y-47421608D01*
X54759932Y-47203101D01*
X54893182Y-46953808D01*
X54975236Y-46683309D01*
X55002943Y-46402000D01*
X54975236Y-46120691D01*
X54893182Y-45850192D01*
X54759932Y-45600899D01*
X54580608Y-45382392D01*
X54362101Y-45203068D01*
X54229142Y-45132000D01*
X54362101Y-45060932D01*
X54580608Y-44881608D01*
X54759932Y-44663101D01*
X54893182Y-44413808D01*
X54975236Y-44143309D01*
X55002943Y-43862000D01*
X54975236Y-43580691D01*
X54893182Y-43310192D01*
X54759932Y-43060899D01*
X54580608Y-42842392D01*
X54362101Y-42663068D01*
X54229142Y-42592000D01*
X54362101Y-42520932D01*
X54580608Y-42341608D01*
X54759932Y-42123101D01*
X54893182Y-41873808D01*
X54975236Y-41603309D01*
X55002943Y-41322000D01*
X54975236Y-41040691D01*
X54893182Y-40770192D01*
X54759932Y-40520899D01*
X54580608Y-40302392D01*
X54362101Y-40123068D01*
X54229142Y-40052000D01*
X54362101Y-39980932D01*
X54580608Y-39801608D01*
X54759932Y-39583101D01*
X54893182Y-39333808D01*
X54975236Y-39063309D01*
X55002943Y-38782000D01*
X54975236Y-38500691D01*
X54893182Y-38230192D01*
X54759932Y-37980899D01*
X54580608Y-37762392D01*
X54362101Y-37583068D01*
X54229142Y-37512000D01*
X54362101Y-37440932D01*
X54580608Y-37261608D01*
X54759932Y-37043101D01*
X54893182Y-36793808D01*
X54975236Y-36523309D01*
X55002943Y-36242000D01*
X54975236Y-35960691D01*
X54893182Y-35690192D01*
X54759932Y-35440899D01*
X54580608Y-35222392D01*
X54362101Y-35043068D01*
X54229142Y-34972000D01*
X54362101Y-34900932D01*
X54580608Y-34721608D01*
X54759932Y-34503101D01*
X54893182Y-34253808D01*
X54908897Y-34202000D01*
X60487928Y-34202000D01*
X60487928Y-35902000D01*
X60500188Y-36026482D01*
X60536498Y-36146180D01*
X60595463Y-36256494D01*
X60674815Y-36353185D01*
X60771506Y-36432537D01*
X60881820Y-36491502D01*
X60954380Y-36513513D01*
X60822525Y-36645368D01*
X60660010Y-36888589D01*
X60548068Y-37158842D01*
X60491000Y-37445740D01*
X60491000Y-37738260D01*
X60548068Y-38025158D01*
X60660010Y-38295411D01*
X60822525Y-38538632D01*
X61029368Y-38745475D01*
X61272589Y-38907990D01*
X61542842Y-39019932D01*
X61829740Y-39077000D01*
X62122260Y-39077000D01*
X62409158Y-39019932D01*
X62679411Y-38907990D01*
X62922632Y-38745475D01*
X63129475Y-38538632D01*
X63291990Y-38295411D01*
X63403932Y-38025158D01*
X63461000Y-37738260D01*
X63461000Y-37445740D01*
X63403932Y-37158842D01*
X63291990Y-36888589D01*
X63129475Y-36645368D01*
X62997620Y-36513513D01*
X63070180Y-36491502D01*
X63180494Y-36432537D01*
X63277185Y-36353185D01*
X63356537Y-36256494D01*
X63415502Y-36146180D01*
X63451812Y-36026482D01*
X63464072Y-35902000D01*
X63464072Y-34202000D01*
X63451812Y-34077518D01*
X63415502Y-33957820D01*
X63356537Y-33847506D01*
X63277185Y-33750815D01*
X63180494Y-33671463D01*
X63070180Y-33612498D01*
X62950482Y-33576188D01*
X62826000Y-33563928D01*
X61126000Y-33563928D01*
X61001518Y-33576188D01*
X60881820Y-33612498D01*
X60771506Y-33671463D01*
X60674815Y-33750815D01*
X60595463Y-33847506D01*
X60536498Y-33957820D01*
X60500188Y-34077518D01*
X60487928Y-34202000D01*
X54908897Y-34202000D01*
X54975236Y-33983309D01*
X55002943Y-33702000D01*
X54975236Y-33420691D01*
X54893182Y-33150192D01*
X54759932Y-32900899D01*
X54580608Y-32682392D01*
X54527735Y-32639000D01*
X55118000Y-32639000D01*
X55142776Y-32636560D01*
X55166601Y-32629333D01*
X55188557Y-32617597D01*
X55207803Y-32601803D01*
X55223597Y-32582557D01*
X55235333Y-32560601D01*
X55242560Y-32536776D01*
X55245000Y-32512000D01*
X55245000Y-32134285D01*
X63729000Y-32134285D01*
X63729000Y-32889715D01*
X63876377Y-33630628D01*
X64165467Y-34328554D01*
X64585161Y-34956670D01*
X65119330Y-35490839D01*
X65747446Y-35910533D01*
X66445372Y-36199623D01*
X67186285Y-36347000D01*
X67941715Y-36347000D01*
X68682628Y-36199623D01*
X69380554Y-35910533D01*
X70008670Y-35490839D01*
X70542839Y-34956670D01*
X70962533Y-34328554D01*
X71251623Y-33630628D01*
X71399000Y-32889715D01*
X71399000Y-32134285D01*
X71251623Y-31393372D01*
X70962533Y-30695446D01*
X70542839Y-30067330D01*
X70008670Y-29533161D01*
X69380554Y-29113467D01*
X68682628Y-28824377D01*
X67941715Y-28677000D01*
X67186285Y-28677000D01*
X66445372Y-28824377D01*
X65747446Y-29113467D01*
X65119330Y-29533161D01*
X64585161Y-30067330D01*
X64165467Y-30695446D01*
X63876377Y-31393372D01*
X63729000Y-32134285D01*
X55245000Y-32134285D01*
X55245000Y-28600000D01*
X71476001Y-28600000D01*
X71476000Y-59284000D01*
G37*
%TD.AperFunction*%
%TD*%
M02*
