%TF.GenerationSoftware,KiCad,Pcbnew,(5.1.9)-1*%
%TF.CreationDate,2021-10-26T11:54:14+02:00*%
%TF.ProjectId,DSMR-esp,44534d52-2d65-4737-902e-6b696361645f,rev?*%
%TF.SameCoordinates,Original*%
%TF.FileFunction,Legend,Top*%
%TF.FilePolarity,Positive*%
%FSLAX46Y46*%
G04 Gerber Fmt 4.6, Leading zero omitted, Abs format (unit mm)*
G04 Created by KiCad (PCBNEW (5.1.9)-1) date 2021-10-26 11:54:14*
%MOMM*%
%LPD*%
G01*
G04 APERTURE LIST*
%ADD10C,0.200000*%
%ADD11C,0.150000*%
%ADD12C,0.100000*%
%ADD13C,0.120000*%
G04 APERTURE END LIST*
D10*
X59642952Y-54570380D02*
X59642952Y-55284666D01*
X59595333Y-55427523D01*
X59500095Y-55522761D01*
X59357238Y-55570380D01*
X59262000Y-55570380D01*
X60595333Y-55570380D02*
X60119142Y-55570380D01*
X60119142Y-54570380D01*
X61500095Y-55475142D02*
X61452476Y-55522761D01*
X61309619Y-55570380D01*
X61214380Y-55570380D01*
X61071523Y-55522761D01*
X60976285Y-55427523D01*
X60928666Y-55332285D01*
X60881047Y-55141809D01*
X60881047Y-54998952D01*
X60928666Y-54808476D01*
X60976285Y-54713238D01*
X61071523Y-54618000D01*
X61214380Y-54570380D01*
X61309619Y-54570380D01*
X61452476Y-54618000D01*
X61500095Y-54665619D01*
X62214380Y-54570380D02*
X62214380Y-55284666D01*
X62166761Y-55427523D01*
X62071523Y-55522761D01*
X61928666Y-55570380D01*
X61833428Y-55570380D01*
X63166761Y-55570380D02*
X62690571Y-55570380D01*
X62690571Y-54570380D01*
X64071523Y-55475142D02*
X64023904Y-55522761D01*
X63881047Y-55570380D01*
X63785809Y-55570380D01*
X63642952Y-55522761D01*
X63547714Y-55427523D01*
X63500095Y-55332285D01*
X63452476Y-55141809D01*
X63452476Y-54998952D01*
X63500095Y-54808476D01*
X63547714Y-54713238D01*
X63642952Y-54618000D01*
X63785809Y-54570380D01*
X63881047Y-54570380D01*
X64023904Y-54618000D01*
X64071523Y-54665619D01*
X64785809Y-54570380D02*
X64785809Y-55284666D01*
X64738190Y-55427523D01*
X64642952Y-55522761D01*
X64500095Y-55570380D01*
X64404857Y-55570380D01*
X65738190Y-55570380D02*
X65262000Y-55570380D01*
X65262000Y-54570380D01*
X66642952Y-55475142D02*
X66595333Y-55522761D01*
X66452476Y-55570380D01*
X66357238Y-55570380D01*
X66214380Y-55522761D01*
X66119142Y-55427523D01*
X66071523Y-55332285D01*
X66023904Y-55141809D01*
X66023904Y-54998952D01*
X66071523Y-54808476D01*
X66119142Y-54713238D01*
X66214380Y-54618000D01*
X66357238Y-54570380D01*
X66452476Y-54570380D01*
X66595333Y-54618000D01*
X66642952Y-54665619D01*
X67357238Y-54570380D02*
X67357238Y-55284666D01*
X67309619Y-55427523D01*
X67214380Y-55522761D01*
X67071523Y-55570380D01*
X66976285Y-55570380D01*
X68309619Y-55570380D02*
X67833428Y-55570380D01*
X67833428Y-54570380D01*
X69214380Y-55475142D02*
X69166761Y-55522761D01*
X69023904Y-55570380D01*
X68928666Y-55570380D01*
X68785809Y-55522761D01*
X68690571Y-55427523D01*
X68642952Y-55332285D01*
X68595333Y-55141809D01*
X68595333Y-54998952D01*
X68642952Y-54808476D01*
X68690571Y-54713238D01*
X68785809Y-54618000D01*
X68928666Y-54570380D01*
X69023904Y-54570380D01*
X69166761Y-54618000D01*
X69214380Y-54665619D01*
D11*
X39894142Y-55634380D02*
X39894142Y-54634380D01*
X40275095Y-54634380D01*
X40370333Y-54682000D01*
X40417952Y-54729619D01*
X40465571Y-54824857D01*
X40465571Y-54967714D01*
X40417952Y-55062952D01*
X40370333Y-55110571D01*
X40275095Y-55158190D01*
X39894142Y-55158190D01*
X41322714Y-54967714D02*
X41322714Y-55634380D01*
X40894142Y-54967714D02*
X40894142Y-55491523D01*
X40941761Y-55586761D01*
X41037000Y-55634380D01*
X41179857Y-55634380D01*
X41275095Y-55586761D01*
X41322714Y-55539142D01*
X41941761Y-55634380D02*
X41846523Y-55586761D01*
X41798904Y-55491523D01*
X41798904Y-54634380D01*
X42465571Y-55634380D02*
X42370333Y-55586761D01*
X42322714Y-55491523D01*
X42322714Y-54634380D01*
X43275095Y-54967714D02*
X43275095Y-55634380D01*
X42846523Y-54967714D02*
X42846523Y-55491523D01*
X42894142Y-55586761D01*
X42989380Y-55634380D01*
X43132238Y-55634380D01*
X43227476Y-55586761D01*
X43275095Y-55539142D01*
X43751285Y-54967714D02*
X43751285Y-55967714D01*
X43751285Y-55015333D02*
X43846523Y-54967714D01*
X44037000Y-54967714D01*
X44132238Y-55015333D01*
X44179857Y-55062952D01*
X44227476Y-55158190D01*
X44227476Y-55443904D01*
X44179857Y-55539142D01*
X44132238Y-55586761D01*
X44037000Y-55634380D01*
X43846523Y-55634380D01*
X43751285Y-55586761D01*
X40156047Y-57284380D02*
X40060809Y-57236761D01*
X40013190Y-57189142D01*
X39965571Y-57093904D01*
X39965571Y-56808190D01*
X40013190Y-56712952D01*
X40060809Y-56665333D01*
X40156047Y-56617714D01*
X40298904Y-56617714D01*
X40394142Y-56665333D01*
X40441761Y-56712952D01*
X40489380Y-56808190D01*
X40489380Y-57093904D01*
X40441761Y-57189142D01*
X40394142Y-57236761D01*
X40298904Y-57284380D01*
X40156047Y-57284380D01*
X40917952Y-56617714D02*
X40917952Y-57284380D01*
X40917952Y-56712952D02*
X40965571Y-56665333D01*
X41060809Y-56617714D01*
X41203666Y-56617714D01*
X41298904Y-56665333D01*
X41346523Y-56760571D01*
X41346523Y-57284380D01*
X43156047Y-57284380D02*
X42822714Y-56808190D01*
X42584619Y-57284380D02*
X42584619Y-56284380D01*
X42965571Y-56284380D01*
X43060809Y-56332000D01*
X43108428Y-56379619D01*
X43156047Y-56474857D01*
X43156047Y-56617714D01*
X43108428Y-56712952D01*
X43060809Y-56760571D01*
X42965571Y-56808190D01*
X42584619Y-56808190D01*
X43489380Y-56284380D02*
X44156047Y-57284380D01*
X44156047Y-56284380D02*
X43489380Y-57284380D01*
D12*
G36*
X44704000Y-59817000D02*
G01*
X37592000Y-59817000D01*
X37592000Y-58674000D01*
X44704000Y-58674000D01*
X44704000Y-59817000D01*
G37*
X44704000Y-59817000D02*
X37592000Y-59817000D01*
X37592000Y-58674000D01*
X44704000Y-58674000D01*
X44704000Y-59817000D01*
D13*
%TO.C,JP2*%
X60646000Y-38922000D02*
X63306000Y-38922000D01*
X60646000Y-36322000D02*
X60646000Y-38922000D01*
X63306000Y-36322000D02*
X63306000Y-38922000D01*
X60646000Y-36322000D02*
X63306000Y-36322000D01*
X60646000Y-35052000D02*
X60646000Y-33722000D01*
X60646000Y-33722000D02*
X61976000Y-33722000D01*
%TO.C,Q1*%
X40457000Y-46988000D02*
X40457000Y-45528000D01*
X43617000Y-46988000D02*
X43617000Y-43828000D01*
X43617000Y-46988000D02*
X42687000Y-46988000D01*
X40457000Y-46988000D02*
X41387000Y-46988000D01*
%TO.C,D1*%
X56262000Y-40214000D02*
X56262000Y-33314000D01*
X59562000Y-40214000D02*
X59562000Y-33314000D01*
X56262000Y-40214000D02*
X59562000Y-40214000D01*
%TO.C,R4*%
X47568752Y-51256000D02*
X47046248Y-51256000D01*
X47568752Y-49836000D02*
X47046248Y-49836000D01*
%TO.C,C1*%
X49892000Y-34690000D02*
X47542000Y-34690000D01*
X43072000Y-34690000D02*
X45422000Y-34690000D01*
X43072000Y-40445563D02*
X43072000Y-34690000D01*
X49892000Y-40445563D02*
X49892000Y-34690000D01*
X48827563Y-41510000D02*
X47542000Y-41510000D01*
X44136437Y-41510000D02*
X45422000Y-41510000D01*
X44136437Y-41510000D02*
X43072000Y-40445563D01*
X48827563Y-41510000D02*
X49892000Y-40445563D01*
X44634500Y-42537500D02*
X44634500Y-41750000D01*
X44240750Y-42143750D02*
X45028250Y-42143750D01*
%TO.C,U1*%
X31541000Y-59822000D02*
X54861000Y-59822000D01*
X29001000Y-52922000D02*
X29001000Y-27492000D01*
X54861000Y-59822000D02*
X54861000Y-27492000D01*
X52741000Y-25362000D02*
X31131000Y-25362000D01*
D11*
G36*
X27961000Y-33067000D02*
G01*
X27961000Y-34337000D01*
X28596000Y-33702000D01*
X27961000Y-33067000D01*
G37*
X27961000Y-33067000D02*
X27961000Y-34337000D01*
X28596000Y-33702000D01*
X27961000Y-33067000D01*
D13*
X29001000Y-52922000D02*
X31541000Y-52922000D01*
X31541000Y-52922000D02*
X31541000Y-59822000D01*
X52731000Y-25362000D02*
G75*
G02*
X54861000Y-27492000I0J-2130000D01*
G01*
X29001000Y-27492000D02*
G75*
G02*
X31131000Y-25362000I2130000J0D01*
G01*
%TO.C,R3*%
X49224000Y-46601748D02*
X49224000Y-47124252D01*
X47804000Y-46601748D02*
X47804000Y-47124252D01*
%TO.C,R2*%
X46938000Y-46601748D02*
X46938000Y-47124252D01*
X45518000Y-46601748D02*
X45518000Y-47124252D01*
%TO.C,R1*%
X41775748Y-49328000D02*
X42298252Y-49328000D01*
X41775748Y-50748000D02*
X42298252Y-50748000D01*
%TO.C,JP1*%
X40637000Y-53259000D02*
X40637000Y-52659000D01*
X42737000Y-53959000D02*
X41337000Y-53959000D01*
X43437000Y-52659000D02*
X43437000Y-53259000D01*
X41337000Y-51959000D02*
X42737000Y-51959000D01*
X40637000Y-52659000D02*
G75*
G02*
X41337000Y-51959000I700000J0D01*
G01*
X41337000Y-53959000D02*
G75*
G02*
X40637000Y-53259000I0J700000D01*
G01*
X43437000Y-53259000D02*
G75*
G02*
X42737000Y-53959000I-700000J0D01*
G01*
X42737000Y-51959000D02*
G75*
G02*
X43437000Y-52659000I0J-700000D01*
G01*
%TO.C,J1*%
X57060000Y-43442000D02*
X57060000Y-41912000D01*
X57530000Y-50462000D02*
X57530000Y-41442000D01*
D12*
X57530000Y-50392000D02*
X57530000Y-50462000D01*
D13*
X57530000Y-59442000D02*
X57530000Y-52662000D01*
X70730000Y-59442000D02*
X57530000Y-59442000D01*
D12*
X70730000Y-59432000D02*
X70730000Y-59442000D01*
D13*
X70730000Y-59442000D02*
X70730000Y-52662000D01*
D12*
X70730000Y-59322000D02*
X70730000Y-59442000D01*
D13*
X70730000Y-41442000D02*
X70730000Y-50462000D01*
X57530000Y-41442000D02*
X70730000Y-41442000D01*
%TO.C,JP2*%
D11*
X61142666Y-31964380D02*
X61142666Y-32678666D01*
X61095047Y-32821523D01*
X60999809Y-32916761D01*
X60856952Y-32964380D01*
X60761714Y-32964380D01*
X61618857Y-32964380D02*
X61618857Y-31964380D01*
X61999809Y-31964380D01*
X62095047Y-32012000D01*
X62142666Y-32059619D01*
X62190285Y-32154857D01*
X62190285Y-32297714D01*
X62142666Y-32392952D01*
X62095047Y-32440571D01*
X61999809Y-32488190D01*
X61618857Y-32488190D01*
X62571238Y-32059619D02*
X62618857Y-32012000D01*
X62714095Y-31964380D01*
X62952190Y-31964380D01*
X63047428Y-32012000D01*
X63095047Y-32059619D01*
X63142666Y-32154857D01*
X63142666Y-32250095D01*
X63095047Y-32392952D01*
X62523619Y-32964380D01*
X63142666Y-32964380D01*
%TO.C,Q1*%
X40019219Y-46374038D02*
X39971600Y-46469276D01*
X39876361Y-46564514D01*
X39733504Y-46707371D01*
X39685885Y-46802609D01*
X39685885Y-46897847D01*
X39923980Y-46850228D02*
X39876361Y-46945466D01*
X39781123Y-47040704D01*
X39590647Y-47088323D01*
X39257314Y-47088323D01*
X39066838Y-47040704D01*
X38971600Y-46945466D01*
X38923980Y-46850228D01*
X38923980Y-46659752D01*
X38971600Y-46564514D01*
X39066838Y-46469276D01*
X39257314Y-46421657D01*
X39590647Y-46421657D01*
X39781123Y-46469276D01*
X39876361Y-46564514D01*
X39923980Y-46659752D01*
X39923980Y-46850228D01*
X39923980Y-45469276D02*
X39923980Y-46040704D01*
X39923980Y-45754990D02*
X38923980Y-45754990D01*
X39066838Y-45850228D01*
X39162076Y-45945466D01*
X39209695Y-46040704D01*
%TO.C,D1*%
X57173904Y-30932380D02*
X57173904Y-29932380D01*
X57412000Y-29932380D01*
X57554857Y-29980000D01*
X57650095Y-30075238D01*
X57697714Y-30170476D01*
X57745333Y-30360952D01*
X57745333Y-30503809D01*
X57697714Y-30694285D01*
X57650095Y-30789523D01*
X57554857Y-30884761D01*
X57412000Y-30932380D01*
X57173904Y-30932380D01*
X58697714Y-30932380D02*
X58126285Y-30932380D01*
X58412000Y-30932380D02*
X58412000Y-29932380D01*
X58316761Y-30075238D01*
X58221523Y-30170476D01*
X58126285Y-30218095D01*
%TO.C,R4*%
X49934833Y-50998380D02*
X49601500Y-50522190D01*
X49363404Y-50998380D02*
X49363404Y-49998380D01*
X49744357Y-49998380D01*
X49839595Y-50046000D01*
X49887214Y-50093619D01*
X49934833Y-50188857D01*
X49934833Y-50331714D01*
X49887214Y-50426952D01*
X49839595Y-50474571D01*
X49744357Y-50522190D01*
X49363404Y-50522190D01*
X50791976Y-50331714D02*
X50791976Y-50998380D01*
X50553880Y-49950761D02*
X50315785Y-50665047D01*
X50934833Y-50665047D01*
%TO.C,C1*%
X42489142Y-38266666D02*
X42536761Y-38314285D01*
X42584380Y-38457142D01*
X42584380Y-38552380D01*
X42536761Y-38695238D01*
X42441523Y-38790476D01*
X42346285Y-38838095D01*
X42155809Y-38885714D01*
X42012952Y-38885714D01*
X41822476Y-38838095D01*
X41727238Y-38790476D01*
X41632000Y-38695238D01*
X41584380Y-38552380D01*
X41584380Y-38457142D01*
X41632000Y-38314285D01*
X41679619Y-38266666D01*
X42584380Y-37314285D02*
X42584380Y-37885714D01*
X42584380Y-37600000D02*
X41584380Y-37600000D01*
X41727238Y-37695238D01*
X41822476Y-37790476D01*
X41870095Y-37885714D01*
%TO.C,R3*%
X48966380Y-44235666D02*
X48490190Y-44569000D01*
X48966380Y-44807095D02*
X47966380Y-44807095D01*
X47966380Y-44426142D01*
X48014000Y-44330904D01*
X48061619Y-44283285D01*
X48156857Y-44235666D01*
X48299714Y-44235666D01*
X48394952Y-44283285D01*
X48442571Y-44330904D01*
X48490190Y-44426142D01*
X48490190Y-44807095D01*
X47966380Y-43902333D02*
X47966380Y-43283285D01*
X48347333Y-43616619D01*
X48347333Y-43473761D01*
X48394952Y-43378523D01*
X48442571Y-43330904D01*
X48537809Y-43283285D01*
X48775904Y-43283285D01*
X48871142Y-43330904D01*
X48918761Y-43378523D01*
X48966380Y-43473761D01*
X48966380Y-43759476D01*
X48918761Y-43854714D01*
X48871142Y-43902333D01*
%TO.C,R2*%
X46680380Y-44235666D02*
X46204190Y-44569000D01*
X46680380Y-44807095D02*
X45680380Y-44807095D01*
X45680380Y-44426142D01*
X45728000Y-44330904D01*
X45775619Y-44283285D01*
X45870857Y-44235666D01*
X46013714Y-44235666D01*
X46108952Y-44283285D01*
X46156571Y-44330904D01*
X46204190Y-44426142D01*
X46204190Y-44807095D01*
X45775619Y-43854714D02*
X45728000Y-43807095D01*
X45680380Y-43711857D01*
X45680380Y-43473761D01*
X45728000Y-43378523D01*
X45775619Y-43330904D01*
X45870857Y-43283285D01*
X45966095Y-43283285D01*
X46108952Y-43330904D01*
X46680380Y-43902333D01*
X46680380Y-43283285D01*
%TO.C,R1*%
X38949333Y-50744380D02*
X38616000Y-50268190D01*
X38377904Y-50744380D02*
X38377904Y-49744380D01*
X38758857Y-49744380D01*
X38854095Y-49792000D01*
X38901714Y-49839619D01*
X38949333Y-49934857D01*
X38949333Y-50077714D01*
X38901714Y-50172952D01*
X38854095Y-50220571D01*
X38758857Y-50268190D01*
X38377904Y-50268190D01*
X39901714Y-50744380D02*
X39330285Y-50744380D01*
X39616000Y-50744380D02*
X39616000Y-49744380D01*
X39520761Y-49887238D01*
X39425523Y-49982476D01*
X39330285Y-50030095D01*
%TO.C,J1*%
X63801666Y-50887380D02*
X63801666Y-51601666D01*
X63754047Y-51744523D01*
X63658809Y-51839761D01*
X63515952Y-51887380D01*
X63420714Y-51887380D01*
X64801666Y-51887380D02*
X64230238Y-51887380D01*
X64515952Y-51887380D02*
X64515952Y-50887380D01*
X64420714Y-51030238D01*
X64325476Y-51125476D01*
X64230238Y-51173095D01*
%TD*%
M02*
