%TF.GenerationSoftware,KiCad,Pcbnew,(5.1.9)-1*%
%TF.CreationDate,2021-10-26T11:54:14+02:00*%
%TF.ProjectId,DSMR-esp,44534d52-2d65-4737-902e-6b696361645f,rev?*%
%TF.SameCoordinates,Original*%
%TF.FileFunction,Soldermask,Bot*%
%TF.FilePolarity,Negative*%
%FSLAX46Y46*%
G04 Gerber Fmt 4.6, Leading zero omitted, Abs format (unit mm)*
G04 Created by KiCad (PCBNEW (5.1.9)-1) date 2021-10-26 11:54:14*
%MOMM*%
%LPD*%
G01*
G04 APERTURE LIST*
%ADD10O,1.700000X1.700000*%
%ADD11R,1.700000X1.700000*%
%ADD12C,0.800000*%
%ADD13C,6.400000*%
%ADD14O,2.000000X1.600000*%
%ADD15R,2.000000X2.000000*%
%ADD16R,1.520000X1.520000*%
%ADD17C,3.250000*%
%ADD18C,1.520000*%
G04 APERTURE END LIST*
D10*
%TO.C,JP2*%
X61976000Y-37592000D03*
D11*
X61976000Y-35052000D03*
%TD*%
D12*
%TO.C,H2*%
X69261056Y-30814944D03*
X67564000Y-30112000D03*
X65866944Y-30814944D03*
X65164000Y-32512000D03*
X65866944Y-34209056D03*
X67564000Y-34912000D03*
X69261056Y-34209056D03*
X69964000Y-32512000D03*
D13*
X67564000Y-32512000D03*
%TD*%
D12*
%TO.C,H1*%
X37765056Y-35894944D03*
X36068000Y-35192000D03*
X34370944Y-35894944D03*
X33668000Y-37592000D03*
X34370944Y-39289056D03*
X36068000Y-39992000D03*
X37765056Y-39289056D03*
X38468000Y-37592000D03*
D13*
X36068000Y-37592000D03*
%TD*%
D14*
%TO.C,U1*%
X53361000Y-33702000D03*
X53361000Y-36242000D03*
X53361000Y-38782000D03*
X53361000Y-41322000D03*
X53361000Y-43862000D03*
X53361000Y-46402000D03*
X53361000Y-48942000D03*
X53361000Y-51482000D03*
X30501000Y-51482000D03*
X30501000Y-48942000D03*
X30501000Y-46402000D03*
X30501000Y-43862000D03*
X30501000Y-41322000D03*
X30501000Y-38782000D03*
D15*
X30501000Y-33702000D03*
D14*
X30501000Y-36242000D03*
%TD*%
D16*
%TO.C,J1*%
X60960000Y-42672000D03*
D17*
X59050000Y-51562000D03*
D18*
X62230000Y-45212000D03*
X63500000Y-42672000D03*
X64770000Y-45212000D03*
X66040000Y-42672000D03*
X67310000Y-45212000D03*
D17*
X69210000Y-51562000D03*
%TD*%
M02*
